<?xml version="1.0" standalone="no"?>
<!DOCTYPE svg PUBLIC "-//W3C//DTD SVG 20010904//EN"
 "http://www.w3.org/TR/2001/REC-SVG-20010904/DTD/svg10.dtd">
<svg version="1.0" xmlns="http://www.w3.org/2000/svg"
 width="626.000000pt" height="626.000000pt" viewBox="0 0 626.000000 626.000000"
 preserveAspectRatio="xMidYMid meet">

<g transform="translate(0.000000,626.000000) scale(0.100000,-0.100000)"
fill="#000000" stroke="none">
<path d="M3240 5702 c0 -29 125 -152 155 -152 3 0 -10 20 -31 44 -41 49 -124
122 -124 108z"/>
<path d="M2516 5614 c-44 -24 -86 -44 -93 -44 -7 0 -13 -4 -13 -10 0 -15 21
-11 55 10 17 10 49 28 72 40 23 11 47 28 53 36 16 18 18 19 -74 -32z"/>
<path d="M2754 5607 c17 -71 106 -167 154 -167 11 0 77 -73 93 -102 20 -37
-10 -16 -55 38 -25 31 -46 53 -46 50 0 -16 32 -66 47 -75 10 -5 15 -13 11 -17
-4 -4 -33 6 -65 22 -58 29 -92 66 -128 142 -9 17 -22 32 -30 32 -22 0 -19 -8
18 -54 49 -60 71 -96 58 -96 -5 0 -29 25 -51 55 -22 30 -48 55 -56 55 -12 0
-9 -9 13 -35 74 -92 96 -114 126 -125 111 -42 185 -95 223 -160 14 -25 18 -43
13 -58 -8 -21 -9 -21 -51 -6 -84 31 -192 23 -413 -28 -289 -68 -345 -93 -581
-262 -117 -84 -147 -98 -158 -73 -3 6 -3 2 0 -10 3 -12 -2 -33 -11 -47 -9 -14
-14 -30 -10 -36 3 -5 -5 -25 -19 -43 -14 -18 -32 -50 -41 -70 -26 -63 -51 -42
-66 57 -8 52 -7 82 5 142 20 94 20 141 1 174 l-15 25 6 -26 c3 -15 1 -30 -5
-33 -6 -4 -11 -18 -11 -32 0 -14 -6 -27 -14 -30 -8 -3 -17 -16 -20 -30 -8 -32
-24 -31 -28 4 -2 17 -9 27 -18 26 -11 -1 -17 9 -18 29 -3 42 -12 47 -13 9 -3
-76 -2 -99 5 -140 6 -35 5 -47 -9 -62 -17 -19 -18 -19 -49 2 -48 33 -68 58
-62 74 3 8 10 13 15 10 5 -4 22 -1 37 4 24 9 25 9 14 -5 -15 -18 -5 -20 14 -3
10 10 9 15 -3 30 -9 10 -18 28 -21 41 -3 12 -14 23 -23 25 -10 2 -16 0 -15 -5
3 -13 -25 -83 -34 -83 -4 0 -8 4 -8 10 0 5 -20 32 -45 60 -24 27 -49 59 -55
71 -16 29 -19 21 -11 -28 5 -23 5 -40 1 -38 -18 11 -33 -31 -35 -95 -2 -39 0
-70 4 -70 3 1 17 7 31 15 14 8 47 14 74 15 45 0 52 -4 97 -49 27 -27 49 -54
49 -60 0 -6 20 -52 45 -102 25 -51 45 -94 45 -96 0 -2 -9 1 -20 7 -12 6 -30 8
-41 5 -15 -5 -22 -2 -26 13 -5 19 -5 19 -56 0 -83 -31 -127 -60 -129 -82 -3
-42 3 -58 67 -188 37 -72 60 -126 52 -120 -14 12 -118 217 -200 392 -24 52
-51 101 -60 109 -10 7 -17 24 -17 37 0 40 -20 38 -21 -3 -2 -54 1 -77 12 -87
5 -6 9 -22 9 -36 0 -16 14 -41 35 -64 35 -39 48 -97 25 -111 -6 -4 -10 7 -10
27 0 25 -10 44 -40 76 -44 48 -47 47 -25 -5 8 -19 15 -38 15 -40 0 -11 -30 20
-30 31 0 6 -8 20 -16 31 -15 19 -15 19 -9 -10 12 -56 36 -107 67 -146 17 -21
33 -37 37 -37 3 1 27 -19 54 -45 26 -26 55 -47 64 -47 13 0 14 -3 5 -12 -17
-17 -78 6 -119 45 -35 33 -52 32 -33 -2 6 -12 8 -21 4 -21 -10 0 -43 43 -76
99 -33 57 -48 55 -28 -3 15 -47 96 -132 113 -118 9 8 15 4 24 -14 11 -24 10
-24 -27 -18 -32 5 -40 3 -49 -14 -6 -11 -9 -27 -6 -34 17 -49 13 -65 -21 -82
-40 -18 -49 -35 -40 -72 l7 -25 26 21 c14 11 31 20 37 20 6 0 0 -7 -12 -16
-28 -20 -28 -71 1 -66 9 2 17 -2 17 -9 0 -8 4 -8 15 1 19 16 52 -19 91 -97 16
-31 40 -69 54 -84 25 -27 26 -27 38 -9 18 30 15 44 -17 67 -26 20 -91 107 -91
124 0 15 32 18 46 4 19 -18 38 -19 52 -2 7 8 -2 31 -32 78 -51 82 -82 118
-123 144 l-33 21 56 2 c51 2 54 1 40 -14 -23 -22 -20 -32 11 -36 36 -4 79 -67
94 -138 6 -30 16 -63 21 -73 8 -16 7 -17 -11 -8 -29 16 -32 14 -27 -21 10 -83
29 -97 68 -49 31 37 68 60 93 60 11 -1 35 4 53 9 23 8 30 8 26 0 -5 -8 1 -9
16 -5 31 8 89 -20 100 -48 6 -15 20 -25 45 -29 19 -4 33 -11 30 -17 -4 -5 3
-9 14 -9 12 0 21 -7 21 -15 0 -8 -5 -15 -11 -15 -5 0 -7 4 -4 10 3 5 0 7 -9 4
-8 -3 -27 1 -43 9 -15 8 -34 12 -40 10 -7 -3 -13 2 -13 10 0 24 -43 28 -120
12 -65 -14 -157 -51 -148 -60 2 -2 29 5 60 17 42 15 68 19 101 14 47 -7 87
-29 74 -42 -4 -4 -13 -2 -19 4 -14 14 -62 16 -53 3 3 -6 -4 -15 -16 -21 -21
-12 -21 -12 7 -30 16 -10 43 -30 59 -44 l30 -25 -27 -1 c-16 0 -28 -4 -28 -10
0 -5 7 -10 15 -10 8 0 15 -4 15 -10 0 -5 -7 -10 -15 -10 -8 0 -15 -4 -15 -9 0
-5 9 -7 20 -4 11 3 20 0 20 -6 0 -6 -9 -11 -21 -11 -15 0 -19 -5 -15 -15 7
-20 -23 -20 -60 0 -52 27 -89 28 -150 6 -31 -12 -69 -30 -83 -40 -14 -10 -45
-28 -69 -40 -34 -17 -49 -33 -66 -71 -13 -27 -27 -46 -31 -42 -5 4 -5 2 -2 -4
12 -20 -4 -70 -29 -98 l-25 -26 38 1 c21 1 30 3 21 6 -22 5 -22 2 2 54 12 28
20 37 20 24 1 -52 121 -120 223 -127 30 -3 34 -6 26 -20 -7 -13 -6 -18 3 -18
9 0 9 -3 0 -12 -8 -8 -15 -8 -24 -1 -20 17 -100 60 -125 67 -47 15 -21 -11 30
-29 28 -10 66 -32 82 -49 17 -17 42 -37 58 -45 15 -8 27 -18 27 -21 0 -14 -31
-34 -38 -24 -4 5 -32 28 -62 50 -99 75 -150 100 -150 73 0 -5 4 -8 9 -5 8 5
80 -41 191 -122 15 -11 23 -11 40 -2 19 10 27 8 53 -10 l30 -23 -19 26 c-10
15 -22 27 -26 27 -15 0 -8 27 11 44 18 16 21 16 72 -16 30 -18 55 -36 57 -40
2 -4 8 -8 13 -8 5 0 19 -10 30 -21 l22 -22 -27 7 c-30 7 -32 3 -11 -21 8 -10
21 -27 29 -38 12 -16 16 -17 30 -6 17 14 20 8 17 -29 -1 -8 14 -25 33 -38 38
-26 66 -84 66 -137 0 -19 4 -35 8 -35 4 0 27 19 50 42 23 22 44 39 47 36 5 -5
-116 -146 -126 -147 -12 -2 -21 73 -10 77 19 6 12 40 -10 47 -24 8 -68 53 -69
71 0 10 -169 94 -189 94 -18 0 -112 60 -150 95 -20 19 -44 38 -53 41 -10 3
-18 9 -18 13 0 11 -125 66 -183 81 -45 12 -141 16 -214 10 -29 -3 -33 -7 -33
-34 0 -17 -9 -40 -22 -54 -17 -17 -3 -12 47 19 93 57 127 56 255 -4 25 -12 63
-33 85 -48 54 -36 166 -144 158 -153 -3 -3 1 -6 10 -6 9 0 19 -4 22 -10 3 -5
2 -10 -3 -10 -10 0 -180 108 -200 127 -7 7 -19 13 -26 13 -6 0 -30 9 -51 21
-56 29 -124 49 -165 48 l-35 0 45 -20 c24 -11 48 -25 52 -32 4 -7 8 -8 8 -3 0
6 5 5 12 -2 7 -7 20 -12 31 -12 10 0 16 -4 13 -9 -3 -4 -30 0 -60 10 -30 10
-80 21 -113 24 l-58 5 50 -16 c262 -80 374 -132 448 -205 16 -16 33 -26 39
-23 6 4 8 2 5 -3 -4 -6 9 -23 28 -37 34 -26 63 -66 48 -66 -4 0 -37 28 -73 62
-99 93 -192 148 -321 189 -190 61 -298 61 -336 1 -9 -15 -27 -40 -40 -55 -18
-23 -23 -41 -23 -88 0 -40 4 -58 11 -54 6 4 8 14 5 22 -3 8 -1 11 4 8 6 -4 23
7 39 23 28 28 34 29 108 27 114 -3 233 -38 291 -86 26 -22 70 -56 97 -78 58
-44 85 -74 110 -116 l17 -30 -21 25 c-56 64 -94 98 -150 133 -34 20 -61 33
-61 28 0 -5 14 -14 30 -21 42 -17 142 -130 174 -196 17 -34 26 -69 26 -100 l0
-48 33 32 c20 20 44 32 62 33 17 1 53 8 81 17 43 12 61 27 125 98 41 45 80 83
87 83 6 1 12 6 12 12 0 5 4 7 10 4 13 -8 49 11 90 50 82 77 130 117 130 107 0
-6 -8 -15 -17 -21 -10 -5 -15 -12 -12 -15 3 -3 22 10 42 29 42 40 57 38 88
-12 20 -32 20 -35 4 -47 -10 -7 -15 -18 -11 -24 14 -22 -13 -12 -47 18 -43 37
-47 37 -38 3 4 -16 14 -28 23 -28 8 0 22 -5 29 -12 8 -6 26 -14 41 -18 16 -4
25 -12 21 -18 -3 -5 -1 -7 4 -4 6 4 16 0 23 -8 17 -20 25 -19 27 4 1 11 -5 22
-13 25 -19 7 -19 66 1 66 8 0 15 7 15 15 0 8 7 15 15 15 8 0 15 5 15 10 0 6
-9 10 -20 10 -11 0 -24 8 -27 18 -4 9 -16 25 -27 35 -20 17 -20 17 1 45 13 17
30 27 47 27 31 1 34 -10 5 -18 -21 -6 -21 -7 9 -32 17 -14 44 -52 60 -85 17
-32 39 -72 51 -88 12 -17 21 -34 21 -40 0 -5 27 -34 59 -64 48 -44 61 -52 66
-39 6 13 10 12 27 -9 13 -16 19 -18 15 -7 -12 33 11 17 32 -23 23 -45 21 -50
-9 -18 -24 26 -26 17 -4 -18 11 -16 23 -23 32 -19 9 3 19 0 24 -7 11 -19 10
-60 -2 -53 -6 4 -8 15 -5 25 5 16 -2 18 -79 19 -46 1 -92 4 -103 8 -15 6 -16
4 -6 -9 7 -8 11 -17 9 -19 -2 -2 -6 -24 -10 -49 -4 -31 -3 -40 4 -30 5 8 10
27 10 43 0 15 4 27 9 27 5 0 16 2 23 5 11 4 13 -3 10 -29 -3 -28 1 -40 24 -61
l28 -26 -28 11 c-16 6 -30 9 -32 8 -1 -2 1 -19 5 -38 7 -35 26 -44 26 -12 0
26 37 21 51 -7 7 -13 25 -34 41 -47 33 -28 32 -28 -29 -9 l-48 14 0 -34 c0
-37 -8 -43 -28 -23 -9 9 -12 8 -12 -4 0 -21 26 -42 45 -34 9 3 15 0 15 -9 0
-19 48 -55 65 -49 7 3 16 1 20 -5 9 -16 25 -13 25 4 0 8 4 15 9 15 5 0 16 3
25 6 11 4 16 1 16 -11 0 -11 -5 -15 -15 -11 -9 3 -15 0 -15 -9 0 -8 5 -15 10
-15 6 0 10 -7 10 -15 0 -18 -5 -18 -31 -5 -10 6 -19 7 -19 2 0 -9 76 -42 95
-42 6 0 1 7 -9 15 -11 8 -18 15 -15 15 14 0 145 -52 154 -61 7 -8 3 -9 -15 -3
-14 5 -41 8 -60 7 -21 -1 -29 1 -21 6 10 6 9 10 -4 15 -23 9 -26 8 -24 -6 3
-26 -1 -38 -13 -38 -14 0 -167 104 -205 139 -22 19 -23 19 -23 2 0 -10 7 -24
15 -31 7 -6 27 -35 43 -64 37 -65 81 -117 96 -114 6 1 31 -9 55 -24 39 -23 41
-27 25 -37 -11 -6 -14 -11 -6 -11 20 0 3 -20 -18 -20 -10 0 -44 13 -75 30 -31
16 -60 30 -63 30 -14 0 34 -41 66 -56 l37 -17 -30 -14 c-30 -14 -29 -14 17 -9
26 3 50 1 53 -4 10 -16 28 -11 21 5 -8 23 18 18 60 -10 20 -14 44 -25 54 -25
26 0 31 -12 12 -26 -9 -7 -38 -14 -64 -14 -32 0 -47 -4 -45 -12 3 -18 104 -48
160 -48 40 0 47 -3 47 -20 0 -30 -76 -27 -146 5 -30 14 -58 25 -62 25 -5 0
-29 13 -54 29 l-45 29 12 -40 c13 -44 44 -74 90 -84 17 -4 24 -9 18 -11 -7 -3
-13 -20 -13 -39 0 -29 6 -38 40 -59 22 -14 46 -25 53 -25 8 0 38 -23 68 -51
65 -62 102 -79 193 -89 44 -5 74 -14 85 -25 15 -17 15 -17 -4 -11 -44 17 -87
19 -95 6 -7 -11 -12 -11 -23 -2 -7 6 -31 19 -53 27 l-39 16 50 -48 c27 -26 49
-51 48 -54 -1 -4 6 -5 15 -2 10 2 38 -3 62 -11 25 -9 68 -16 96 -16 41 0 55
-5 74 -25 12 -13 25 -23 29 -22 3 1 20 -12 37 -28 81 -78 92 -85 142 -85 55 0
126 32 150 68 13 20 13 22 -3 16 -15 -6 -16 -5 -3 15 12 21 9 26 -44 76 -32
30 -58 59 -58 65 0 5 -8 10 -17 10 -13 0 -9 8 17 30 29 25 32 31 20 40 -12 7
-30 -5 -80 -54 -36 -35 -76 -69 -90 -75 l-25 -12 25 21 c153 130 198 225 206
440 5 110 4 123 -9 107 -12 -15 -16 -15 -20 -3 -3 8 -1 17 6 19 9 3 12 41 11
134 -1 104 -4 135 -17 154 -10 13 -17 19 -17 14 0 -6 -5 -2 -11 9 -8 12 -14
15 -18 7 -4 -6 -8 12 -8 39 -2 49 0 51 37 70 25 13 38 16 35 8 -3 -7 11 -38
30 -68 33 -53 39 -85 8 -45 -15 20 -15 20 -8 -2 21 -72 119 -193 173 -215 15
-6 56 -18 91 -28 36 -9 57 -19 49 -23 -9 -3 -45 5 -82 18 -65 23 -74 17 -28
-19 13 -10 27 -29 32 -42 5 -13 28 -33 51 -45 24 -12 48 -27 55 -34 7 -6 33
-18 58 -25 25 -7 44 -16 41 -20 -4 -7 25 -13 135 -26 58 -8 164 20 208 53 40
30 91 132 71 143 -6 5 -9 17 -6 29 4 17 1 21 -16 20 -12 -1 -31 -1 -42 0 -17
1 -18 3 -5 14 24 20 66 80 72 104 10 39 -10 25 -30 -19 -20 -45 -73 -108 -90
-108 -14 0 -3 36 14 51 20 16 17 32 -3 25 -12 -4 -8 3 10 21 35 35 114 138
134 176 32 62 -17 79 -57 20 -25 -37 -123 -123 -163 -144 -19 -10 -19 -8 5 18
16 16 28 32 28 37 0 4 11 17 25 30 43 40 28 62 -20 30 -30 -20 -121 -44 -160
-43 l-30 1 30 7 c76 19 129 64 224 193 12 16 7 15 -23 -6 -54 -36 -144 -67
-185 -64 l-36 3 55 29 c47 25 157 104 198 143 7 7 23 19 34 28 33 22 14 29
-34 12 -59 -22 -215 -28 -223 -9 -8 20 -6 24 6 16 9 -5 10 1 5 19 -8 34 -45
97 -57 97 -5 0 -52 -18 -105 -40 -53 -22 -100 -40 -104 -40 -4 0 -24 44 -45
98 -99 257 -95 235 -41 256 24 9 68 31 98 49 30 18 60 31 66 29 7 -2 12 3 12
12 0 9 7 16 15 16 8 0 15 4 15 8 0 4 14 16 30 26 30 17 31 17 51 -6 18 -20 20
-21 14 -3 -3 11 -9 34 -12 50 l-6 30 22 -19 c29 -26 36 -15 11 17 -11 14 -20
33 -20 43 0 10 -10 38 -21 62 -18 36 -26 43 -45 39 -13 -2 -22 -1 -21 2 1 3
-4 16 -11 29 -9 15 -19 21 -31 17 -10 -3 -24 1 -30 9 -7 8 -18 13 -25 10 -16
-6 -29 23 -15 32 6 4 3 14 -8 26 -11 13 -14 22 -7 25 39 14 -66 252 -115 260
-19 3 -20 0 -11 -16 5 -11 15 -23 20 -26 12 -7 50 -82 55 -108 2 -10 7 -27 10
-36 7 -23 -7 -34 -68 -54 l-47 -16 26 27 c15 15 32 43 38 62 11 30 10 41 -6
73 -10 20 -21 37 -24 37 -2 0 0 -9 6 -19 16 -30 12 -83 -9 -114 -16 -25 -20
-27 -32 -14 -10 11 -23 12 -52 5 -78 -17 -151 31 -141 94 11 67 73 113 144
106 40 -4 47 -2 43 11 -5 19 34 68 50 63 11 -3 27 16 27 33 -1 6 -6 3 -13 -6
-7 -9 -20 -13 -34 -10 l-22 6 23 26 c14 17 34 27 52 27 33 1 93 6 212 17 67 6
82 11 82 25 0 9 -9 25 -20 35 -24 22 -26 35 -5 35 9 0 26 7 39 15 28 19 67 7
108 -32 26 -25 28 -25 52 -10 14 9 32 14 41 11 11 -5 14 -2 9 10 -5 13 1 15
35 12 23 -2 41 -2 41 0 0 3 -7 17 -16 32 l-16 27 26 -29 c15 -15 30 -25 34
-22 3 4 2 10 -4 14 -6 4 -13 14 -16 23 -5 14 -1 13 31 -4 36 -20 37 -20 65 -2
20 13 24 20 15 23 -15 5 -54 42 -44 42 3 0 15 -5 28 -12 64 -33 69 -33 73 -2
1 8 -8 19 -22 24 -38 15 -28 19 16 8 43 -11 61 -5 42 14 -7 7 -12 22 -12 33 0
30 29 87 41 80 10 -7 12 25 3 49 -3 9 -10 16 -16 16 -5 0 -7 -4 -4 -9 3 -4 -4
-17 -16 -27 l-21 -19 15 30 c9 17 13 36 10 44 -3 10 1 13 16 9 25 -7 30 4 38
80 6 65 19 105 46 144 12 17 15 29 8 33 -18 11 -36 -12 -65 -87 -37 -92 -43
-69 -11 37 14 43 22 82 19 85 -3 3 -7 1 -10 -5 -2 -5 -14 -28 -28 -50 -14 -22
-33 -57 -42 -77 -19 -39 -33 -49 -33 -23 0 24 -15 17 -18 -7 -1 -13 -6 -36
-11 -53 -9 -26 -9 -23 -6 20 2 28 9 72 15 99 6 27 8 51 5 54 -3 3 -5 -2 -5
-11 0 -10 -4 -17 -9 -17 -5 0 -15 -20 -22 -45 -14 -48 -34 -63 -23 -17 4 15
17 54 30 86 13 33 22 61 20 63 -2 2 -14 -10 -26 -27 -12 -16 -26 -28 -31 -25
-14 9 -47 -13 -55 -37 l-7 -23 -11 25 c-10 24 -10 23 -14 -17 -2 -24 -7 -43
-13 -43 -5 0 -9 -7 -9 -15 0 -8 -4 -15 -10 -15 -5 0 -7 -7 -4 -15 4 -11 -1
-15 -17 -17 -13 0 -30 -2 -38 -2 -20 -2 -46 -56 -42 -88 3 -26 -10 -22 -50 16
-25 24 -40 31 -46 25 -7 -7 -15 -5 -24 9 -28 38 -79 49 -79 16 0 -9 -4 -12
-10 -9 -5 3 -10 1 -10 -4 0 -20 -22 -11 -50 19 -19 21 -37 30 -59 30 -27 0
-31 -3 -31 -27 -1 -25 -2 -26 -14 -10 -18 23 -30 22 -23 -3 7 -27 -9 -34 -44
-20 -39 17 -63 -2 -28 -21 23 -12 23 -12 4 -20 -33 -13 -45 -10 -54 13 -6 18
-9 19 -14 5 -4 -10 -2 -17 4 -17 6 0 9 -7 5 -15 -4 -10 1 -15 14 -15 11 0 20
-4 20 -10 0 -5 -14 -10 -30 -10 -17 0 -29 3 -28 8 2 4 -7 17 -20 30 -29 29
-66 26 -70 -5 -3 -23 -32 -22 -32 2 0 21 -25 36 -38 23 -9 -9 -12 -4 -13 23
-1 33 -2 32 -11 -11 -10 -49 -5 -264 8 -294 5 -14 4 -17 -6 -11 -9 6 -12 -1
-8 -27 3 -28 1 -34 -10 -30 -11 4 -13 0 -7 -16 8 -28 -9 -29 -42 -2 -30 23
-47 26 -40 6 3 -8 1 -16 -5 -18 -6 -2 2 -18 17 -36 33 -39 22 -42 -18 -4 l-29
27 7 -30 c10 -40 28 -68 70 -107 20 -17 49 -54 65 -80 l30 -48 -25 -10 c-15
-6 -23 -15 -19 -24 4 -10 -9 -19 -43 -31 -26 -10 -70 -28 -98 -40 -27 -13 -71
-32 -97 -44 -26 -11 -52 -21 -57 -21 -6 0 -11 -4 -11 -10 0 -5 -5 -10 -11 -10
-17 0 -103 -42 -111 -54 -4 -6 -21 21 -38 59 -17 39 -36 78 -41 88 -8 14 -4
19 18 27 67 25 92 36 151 68 46 25 62 39 62 55 1 22 1 22 16 2 16 -19 16 -19
9 5 -22 81 -38 109 -64 113 l-26 4 27 2 c25 1 27 3 18 27 -6 14 -7 30 -4 36
12 19 -39 -4 -56 -25 -9 -11 -29 -21 -44 -23 -16 -2 -45 -14 -66 -28 -36 -24
-90 -44 -90 -34 0 9 35 44 55 57 17 11 18 12 1 7 -13 -5 -17 -2 -12 9 3 8 2
15 -3 15 -13 0 -32 -26 -25 -33 10 -9 -46 -28 -58 -21 -6 4 -8 3 -5 -2 3 -6
-2 -15 -11 -21 -14 -8 -17 -6 -18 11 -1 16 14 31 60 58 120 72 177 137 262
298 23 44 72 164 80 195 7 28 6 29 -12 15 -18 -14 -18 -14 -5 2 13 18 11 110
-5 196 -6 31 8 46 20 20 3 -10 8 -9 18 3 7 9 31 22 53 29 22 7 47 15 55 18 8
3 23 4 33 3 9 -1 17 4 17 11 -1 18 -39 86 -40 71 0 -16 -76 -18 -85 -3 -4 6
10 10 35 10 48 0 56 12 40 69 -12 46 -22 55 -51 46 -14 -5 -18 -12 -14 -25 3
-10 -2 -33 -11 -52 -21 -44 -56 -49 -71 -10 -10 24 -11 19 -12 -38 -1 -62 -2
-64 -15 -38 -8 15 -12 36 -9 46 4 19 -21 82 -33 82 -3 0 -3 -17 0 -37 10 -59
16 -185 9 -196 -10 -17 -23 17 -23 65 0 56 -18 148 -32 166 -18 22 -28 13 -23
-23 2 -19 0 -37 -6 -41 -6 -3 -9 -41 -8 -87 1 -54 -2 -82 -10 -85 -6 -2 -11
-12 -11 -23 0 -10 -3 -20 -7 -20 -38 -7 -59 -4 -71 8 -16 16 -9 43 12 43 9 0
12 7 9 20 -3 11 -9 20 -14 20 -5 0 -9 5 -9 10 0 19 25 10 35 -12 6 -13 17 -24
25 -26 13 -2 14 10 12 74 -3 54 1 90 13 120 9 24 14 48 10 53 -3 6 -43 22 -88
36 -101 32 -272 49 -422 42 -60 -3 -117 -2 -126 1 -22 9 -8 46 23 63 13 6 26
18 31 25 4 7 20 15 36 19 51 11 72 89 34 127 -17 17 -23 18 -41 7 -16 -10 -23
-10 -35 -1 -8 7 -39 16 -68 19 l-53 6 54 19 c68 24 229 64 291 73 45 7 46 6
62 -28 10 -19 17 -46 17 -59 0 -29 4 -35 65 -83 28 -22 55 -45 60 -52 6 -8 34
-16 63 -20 47 -5 52 -4 52 13 0 10 -9 34 -21 53 -20 34 -19 55 3 33 7 -7 20
-12 29 -12 9 0 20 -7 23 -16 3 -8 2 -12 -4 -9 -16 10 -12 -5 11 -41 11 -19 25
-32 29 -29 5 3 26 -30 46 -74 25 -52 42 -77 51 -74 7 3 13 0 13 -7 0 -6 5 -8
11 -5 6 4 8 13 5 21 -3 8 0 11 9 8 9 -4 22 7 34 26 19 32 19 32 -2 84 -12 28
-34 71 -49 95 -28 44 -37 78 -19 66 5 -3 12 -1 16 5 11 18 24 11 31 -16 6 -23
11 -26 38 -21 17 3 71 24 119 46 48 23 92 39 97 36 6 -3 10 0 10 7 0 17 -67
158 -84 178 -8 8 -24 46 -36 84 -20 62 -26 70 -64 87 -53 24 -55 24 -128 -10
-75 -34 -94 -53 -103 -104 -9 -47 -18 -40 -44 38 -11 33 -31 90 -45 128 -34
89 -33 117 4 157 17 18 28 35 25 39 -3 3 -9 1 -13 -5 -10 -15 -51 -36 -60 -30
-4 2 -7 -6 -8 -17 -2 -49 -13 -99 -25 -113 -10 -12 -9 -13 7 -7 17 6 17 5 5
-10 -13 -17 -15 -16 -34 0 -30 26 -86 87 -87 93 0 3 20 12 45 19 49 14 76 37
28 24 -50 -14 -81 -7 -134 32 -31 22 -49 31 -46 21 4 -9 2 -16 -3 -16 -10 0
-75 87 -75 101 0 4 -6 14 -14 21 -11 11 -13 9 -7 -15z m410 -389 c8 -18 25
-60 37 -93 12 -33 25 -64 29 -70 4 -5 15 -28 24 -50 14 -37 14 -38 -1 -17 -23
32 -39 27 -40 -12 -1 -24 6 -41 23 -57 28 -26 69 -128 56 -141 -4 -4 -16 15
-25 44 -22 71 -66 121 -136 156 l-59 30 26 13 c15 7 30 14 34 16 4 2 10 -1 13
-7 4 -6 3 -10 -2 -9 -4 1 -16 -1 -26 -5 -14 -7 -11 -11 20 -27 21 -11 43 -17
50 -14 20 7 15 33 -7 40 -11 3 -20 10 -20 15 0 6 11 5 26 -1 30 -11 42 -5 26
13 -10 13 -72 183 -72 199 0 18 9 9 24 -23z m356 -61 c0 -8 -16 -18 -35 -24
-40 -13 -46 -2 -13 21 27 20 48 20 48 3z m-497 -63 c23 -5 26 -8 16 -20 -13
-15 -33 -9 -23 8 4 6 -1 8 -16 3 -12 -4 -52 -8 -88 -10 -37 -2 -73 -4 -80 -4
-7 -1 -11 -5 -8 -10 3 -5 39 -12 78 -16 87 -8 108 -13 108 -26 0 -7 -12 -8
-31 -4 -17 4 -57 7 -90 7 -32 0 -59 4 -59 9 0 5 -15 9 -32 8 -31 -1 -32 -1 -8
-9 20 -6 13 -8 -28 -9 -59 -1 -250 -37 -267 -50 -5 -5 -21 -12 -34 -16 -13 -4
-40 -14 -60 -23 -20 -9 -39 -15 -43 -14 -5 1 -8 -2 -8 -8 0 -5 -7 -10 -16 -10
-9 0 -12 -5 -8 -12 4 -7 3 -8 -5 -4 -15 9 -53 -3 -46 -15 3 -5 0 -6 -8 -3 -9
3 -16 -3 -20 -15 -4 -15 -10 -19 -23 -14 -11 4 -15 3 -10 -5 3 -6 -3 -16 -15
-22 -12 -7 -19 -8 -15 -2 3 6 0 12 -6 15 -9 3 -6 8 7 13 11 4 38 20 60 35 32
22 142 74 235 113 8 3 2 4 -15 0 -76 -14 -337 -152 -307 -162 18 -6 14 -20 -8
-27 -11 -3 -19 -10 -17 -14 1 -5 -26 -30 -60 -55 -35 -26 -84 -72 -109 -102
-25 -29 -51 -51 -57 -47 -5 3 -7 1 -3 -5 9 -14 -7 -23 -24 -12 -10 6 0 24 46
77 33 37 66 77 74 87 14 18 14 19 -8 7 -38 -20 -35 -7 6 23 287 210 426 274
707 324 163 29 231 32 318 16z m257 -29 c0 -8 -4 -15 -10 -15 -5 0 -10 7 -10
15 0 8 5 15 10 15 6 0 10 -7 10 -15z m234 -30 c9 -24 -3 -43 -36 -54 -46 -16
-66 -13 -79 11 -10 18 -8 24 11 40 28 22 95 24 104 3z m34 -77 c21 -21 13 -47
-18 -63 -38 -20 -63 -19 -83 3 -14 15 -14 21 -4 34 28 35 82 49 105 26z m-258
-23 c14 -19 14 -19 -2 -6 -10 7 -18 18 -18 24 0 6 1 8 3 6 1 -2 9 -13 17 -24z
m20 -80 c0 -5 -5 -3 -10 5 -5 8 -10 20 -10 25 0 6 5 3 10 -5 5 -8 10 -19 10
-25z m-235 -75 c3 -5 2 -10 -4 -10 -5 0 -13 5 -16 10 -3 6 -2 10 4 10 5 0 13
-4 16 -10z m-1135 -74 c-17 -21 -80 -57 -74 -43 2 7 21 22 42 33 46 27 47 27
32 10z m1454 -84 c-17 -16 -17 -16 -6 0 7 9 10 29 7 45 l-5 28 11 -28 c10 -24
8 -32 -7 -45z m-44 16 c0 -4 -4 -8 -10 -8 -5 0 -10 4 -10 9 0 5 -3 18 -6 28
-5 16 -4 16 10 -1 9 -11 16 -23 16 -28z m30 9 c0 -5 -4 -5 -10 -2 -5 3 -10 14
-10 23 0 15 2 15 10 2 5 -8 10 -19 10 -23z m-1537 -82 c-3 -9 -8 -14 -10 -11
-3 3 -2 9 2 15 9 16 15 13 8 -4z m167 -15 c0 -5 -5 -10 -11 -10 -5 0 -7 5 -4
10 3 6 8 10 11 10 2 0 4 -4 4 -10z m1074 -57 c4 -9 -11 0 -33 18 -22 19 -40
38 -40 42 -2 13 67 -43 73 -60z m-1365 -170 c1 -24 -19 -13 -25 15 -4 15 -20
56 -36 90 -15 35 -28 69 -27 75 1 14 88 -163 88 -180z m239 175 c8 -11 42
-116 42 -132 0 -3 -5 -6 -11 -6 -12 0 -44 71 -53 118 -6 33 4 42 22 20z m-108
-13 c0 -8 -82 -57 -87 -51 -9 9 8 26 26 26 9 0 26 7 37 15 21 16 24 17 24 10z
m1291 -62 c13 -16 12 -17 -3 -4 -17 13 -22 21 -14 21 2 0 10 -8 17 -17z
m-1390 -34 c-5 -13 -10 -19 -10 -12 -1 15 10 45 15 40 3 -2 0 -15 -5 -28z m34
-59 c3 -5 1 -10 -4 -10 -6 0 -11 5 -11 10 0 6 2 10 4 10 3 0 8 -4 11 -10z
m-125 -30 c0 -5 -23 -19 -52 -32 -28 -12 -68 -30 -87 -40 -19 -10 -36 -16 -38
-14 -3 3 153 87 175 95 1 1 2 -3 2 -9z m137 -72 c-3 -8 -6 -5 -6 6 -1 11 2 17
5 13 3 -3 4 -12 1 -19z m22 -50 c10 -30 9 -31 -4 -14 -8 11 -15 26 -15 33 0
22 8 14 19 -19z m1237 -34 c-3 -8 -10 -14 -16 -14 -14 0 -13 27 2 53 l13 22 3
-23 c2 -13 1 -30 -2 -38z m-1391 36 c20 -32 -68 -90 -106 -70 -26 14 -24 45 3
64 25 18 93 22 103 6z m1480 0 c3 -5 -1 -10 -9 -10 -9 0 -16 5 -16 10 0 6 4
10 9 10 6 0 13 -4 16 -10z m-920 -28 c-3 -3 -11 0 -18 7 -9 10 -8 11 6 5 10
-3 15 -9 12 -12z m-253 -11 c-17 -10 12 -108 39 -132 10 -9 15 -19 12 -23 -3
-3 6 -24 21 -46 27 -41 32 -65 17 -89 -14 -22 -35 0 -81 88 -34 64 -41 87 -43
142 -1 47 1 65 9 62 7 -2 15 1 19 7 4 6 10 9 13 5 4 -3 1 -10 -6 -14z m356
-26 c23 -9 42 -21 42 -25 0 -4 -17 1 -37 11 -21 10 -43 19 -50 19 -6 0 -15 5
-19 12 -5 7 -2 9 7 6 8 -3 33 -14 57 -23z m-624 -11 c24 -24 19 -40 -20 -63
-38 -22 -89 -28 -99 -10 -12 19 4 54 32 71 35 22 67 23 87 2z m1542 -114 l24
-82 -20 -25 c-15 -19 -20 -21 -20 -9 0 18 -15 22 -25 6 -12 -19 -20 -2 -19 37
2 21 -2 60 -7 87 -8 41 -6 52 8 68 23 26 31 14 59 -82z m-742 -3 c15 -78 17
-107 8 -107 -19 0 -31 27 -34 80 l-3 54 -44 11 c-25 6 -46 16 -48 22 -3 8 17
5 55 -8 53 -18 61 -24 66 -52z m41 43 c3 -6 -3 -10 -14 -10 -12 0 -21 2 -21 4
0 2 -3 12 -7 21 -5 15 -3 16 15 6 11 -6 24 -16 27 -21z m555 6 c0 -2 -7 -6
-15 -10 -8 -3 -15 -1 -15 4 0 6 7 10 15 10 8 0 15 -2 15 -4z m-1343 -28 c-3
-8 -6 -5 -6 6 -1 11 2 17 5 13 3 -3 4 -12 1 -19z m128 2 c3 -5 1 -10 -4 -10
-6 0 -11 5 -11 10 0 6 2 10 4 10 3 0 8 -4 11 -10z m2125 -10 c-19 -12 -30 -12
-30 -1 0 10 31 20 40 14 2 -2 -2 -8 -10 -13z m460 16 c0 -3 -4 -8 -10 -11 -5
-3 -10 -1 -10 4 0 6 5 11 10 11 6 0 10 -2 10 -4z m-2395 -36 c3 -5 1 -10 -4
-10 -6 0 -11 5 -11 10 0 6 2 10 4 10 3 0 8 -4 11 -10z m-295 -10 c0 -5 -2 -10
-4 -10 -3 0 -8 5 -11 10 -3 6 -1 10 4 10 6 0 11 -4 11 -10z m2263 3 c-7 -2
-19 -2 -25 0 -7 3 -2 5 12 5 14 0 19 -2 13 -5z m-113 -7 c0 -2 -7 -7 -16 -10
-8 -3 -12 -2 -9 4 6 10 25 14 25 6z m-175 -31 c-23 -8 -85 -10 -85 -3 0 4 21
8 48 7 26 0 43 -2 37 -4z m-1367 -24 c22 -12 98 -37 137 -46 40 -9 55 -23 55
-51 0 -24 -14 -32 -24 -15 -7 11 -57 1 -74 -15 -7 -7 -20 -10 -28 -7 -9 3 -20
0 -24 -7 -11 -18 -60 -4 -60 17 0 9 -11 28 -24 42 -14 15 -28 38 -31 53 -7 27
-7 27 48 37 4 0 15 -3 25 -8z m1920 -8 c11 -10 29 -26 40 -35 12 -10 22 -28
22 -40 0 -20 -5 -17 -45 22 -25 24 -45 50 -45 57 0 17 6 16 28 -4z m-2158 -18
c14 -16 10 -18 -14 -9 -9 3 -16 10 -16 15 0 14 16 11 30 -6z m-966 -18 c-11
-6 -22 -15 -26 -21 -5 -7 -8 -4 -8 6 0 19 29 40 44 31 5 -3 0 -10 -10 -16z
m286 -58 c0 -5 -4 -9 -10 -9 -5 0 -10 7 -10 16 0 8 5 12 10 9 6 -3 10 -10 10
-16z m1165 12 c10 -17 -11 -21 -31 -6 -18 14 -18 14 3 15 12 0 24 -4 28 -9z
m619 -55 c-21 -31 -39 -54 -42 -52 -2 3 5 17 17 32 13 16 19 35 16 46 -5 13
-2 16 8 12 8 -3 17 2 21 12 4 9 9 15 11 12 3 -3 -11 -31 -31 -62z m-54 -1 c0
-21 -5 -25 -29 -25 -19 0 -34 -8 -43 -22 -19 -28 -119 -128 -128 -128 -12 0
-32 28 -28 38 1 6 32 40 67 77 41 44 74 71 95 75 57 14 66 12 66 -15z m-1111
-50 c18 -25 29 -50 25 -56 -5 -9 -64 78 -64 96 0 11 8 3 39 -40z m351 -40 c9
-10 9 -15 1 -15 -21 0 -11 -20 14 -26 14 -3 23 -10 20 -14 -6 -10 22 -33 46
-37 13 -2 17 2 13 12 -8 19 0 19 18 2 7 -8 26 -17 41 -21 26 -6 28 -5 21 16
-6 20 -5 21 10 6 19 -19 68 -32 93 -24 10 3 24 2 31 -3 17 -10 -59 -24 -82
-15 -9 3 -44 7 -78 8 -49 1 -144 20 -166 32 -1 1 -5 12 -8 25 -3 13 -8 34 -11
47 -6 26 17 31 37 7z m-540 -75 c0 -5 -2 -10 -4 -10 -3 0 -8 5 -11 10 -3 6 -1
10 4 10 6 0 11 -4 11 -10z m895 -20 c3 -5 1 -10 -4 -10 -6 0 -11 5 -11 10 0 6
2 10 4 10 3 0 8 -4 11 -10z m1298 -37 c-7 -2 -21 -2 -30 0 -10 3 -4 5 12 5 17
0 24 -2 18 -5z m-1119 -48 c-4 -8 -8 -15 -10 -15 -2 0 -4 7 -4 15 0 8 4 15 10
15 5 0 7 -7 4 -15z m330 -37 c22 -53 16 -93 -14 -101 -12 -3 -27 2 -37 11 -9
10 -20 17 -24 17 -4 0 -11 3 -15 8 -4 4 -2 7 5 7 7 0 9 5 5 12 -5 7 -2 9 8 6
20 -8 50 42 38 62 -13 21 -12 32 3 28 6 -3 20 -25 31 -50z m-960 -30 c4 -21
11 -38 15 -38 5 0 11 -11 14 -25 3 -16 0 -24 -6 -22 -11 3 -47 109 -47 137 1
25 16 -9 24 -52z m850 37 c-4 -15 -1 -32 6 -40 10 -12 9 -15 -8 -15 -12 0 -23
9 -27 20 -3 11 -12 20 -18 20 -10 0 41 40 51 40 1 0 0 -11 -4 -25z m-134 5 c0
-5 -2 -10 -4 -10 -3 0 -8 5 -11 10 -3 6 -1 10 4 10 6 0 11 -4 11 -10z m90 -54
c0 -38 -59 -43 -60 -4 0 5 25 17 58 27 1 1 2 -10 2 -23z m-1607 -23 c-7 -2
-19 -2 -25 0 -7 3 -2 5 12 5 14 0 19 -2 13 -5z m217 -7 c0 -2 -7 -7 -16 -10
-8 -3 -12 -2 -9 4 6 10 25 14 25 6z m664 -11 c11 -8 32 -15 48 -15 25 0 28 -4
28 -31 0 -21 -4 -29 -12 -25 -7 2 -32 10 -55 17 -38 10 -43 15 -43 40 0 32 6
35 34 14z m136 -35 c-36 -45 -40 -47 -40 -22 0 13 53 62 68 62 2 0 -11 -18
-28 -40z m428 -13 c-2 -19 -7 -23 -25 -19 -28 5 -29 11 -5 28 25 19 32 17 30
-9z m-1484 -53 c9 -8 16 -19 16 -24 0 -5 3 -15 6 -24 4 -11 1 -16 -11 -16 -12
0 -15 5 -11 16 10 25 -17 11 -31 -17 -9 -17 -13 -19 -13 -7 0 9 5 20 10 23 15
9 2 25 -15 18 -8 -3 -15 0 -15 5 0 13 28 42 40 42 5 0 16 -7 24 -16z m1497 -1
c13 -16 12 -17 -3 -4 -10 7 -18 15 -18 17 0 8 8 3 21 -13z m-23 -18 c-3 -3 -9
2 -12 12 -6 14 -5 15 5 6 7 -7 10 -15 7 -18z m112 -30 c0 -13 -50 -36 -61 -29
-14 8 -11 21 13 47 20 23 23 24 35 8 7 -9 12 -20 13 -26z m524 30 c-4 -8 -1
-15 6 -15 7 0 9 -8 5 -19 -3 -11 -1 -22 5 -26 12 -8 13 -25 1 -25 -8 0 -24 37
-22 53 1 4 -6 7 -14 7 -12 0 -12 3 2 20 21 24 24 25 17 5z m-1855 -51 c-18
-18 -36 -31 -40 -29 -4 3 -5 -4 -2 -14 3 -13 -3 -23 -19 -32 -12 -7 -26 -12
-30 -11 -4 1 -5 -4 -2 -12 3 -7 -7 -27 -21 -44 -26 -31 -27 -31 -51 -15 l-25
16 51 49 c51 49 70 81 70 122 0 22 2 23 51 13 l50 -10 -32 -33z m-309 -7 c0
-16 -3 -18 -12 -9 -22 22 -32 12 -11 -10 22 -25 37 -48 30 -48 -2 0 -19 13
-38 29 -18 17 -36 27 -39 25 -2 -3 6 -14 20 -24 14 -11 20 -20 13 -20 -6 0
-15 5 -18 10 -4 6 -10 8 -14 6 -4 -3 -13 0 -21 5 -12 8 -12 12 -2 16 6 2 10 9
6 14 -3 5 4 9 15 9 11 0 22 4 25 8 2 4 14 8 25 9 15 1 21 -4 21 -20z m2126
-23 c8 -18 14 -40 14 -49 0 -23 -17 -18 -27 9 -6 18 -12 22 -28 15 -18 -7 -18
-8 -2 -8 13 -1 17 -7 15 -23 -4 -29 -20 -28 -34 3 -26 53 -25 64 3 81 33 20
41 16 59 -28z m-583 -4 c-11 -9 -95 -42 -98 -38 -1 2 -5 12 -9 23 -5 17 2 22
42 35 41 14 48 14 60 1 6 -8 9 -18 5 -21z m147 -16 c13 -32 13 -31 -5 -31 -9
0 -14 6 -11 13 3 8 1 16 -4 19 -6 4 -10 1 -10 -5 0 -7 -6 -10 -12 -8 -7 3 -19
-2 -27 -9 -8 -8 -22 -12 -33 -10 -10 3 -16 1 -12 -4 3 -5 -2 -9 -10 -9 -9 0
-16 -5 -16 -11 0 -5 -4 -8 -9 -4 -10 5 -79 -19 -160 -56 -24 -11 -46 -18 -49
-15 -10 11 19 33 65 52 27 10 93 42 148 70 108 56 127 57 145 8z m-1300 2 c14
-3 34 -12 45 -21 l20 -16 -20 3 c-11 1 -25 -1 -32 -5 -6 -4 -14 -3 -18 3 -3 5
-14 10 -24 10 -10 0 -24 7 -31 15 -7 9 -15 13 -18 10 -8 -8 70 -75 86 -75 9 0
7 -9 -7 -29 l-21 -29 -40 39 c-22 21 -44 39 -50 39 -14 0 7 51 27 66 11 7 25
9 38 4 11 -5 31 -11 45 -14z m1608 7 c-1 -5 6 -33 15 -65 21 -69 22 -90 3 -65
-7 9 -20 15 -27 12 -16 -6 -39 37 -39 71 0 12 -6 24 -12 27 -8 3 -3 9 12 15
30 13 51 15 48 5z m-353 -43 c3 -5 1 -10 -4 -10 -6 0 -11 5 -11 10 0 6 2 10 4
10 3 0 8 -4 11 -10z m287 -27 c6 -16 12 -35 13 -43 1 -8 6 -24 10 -34 6 -14 5
-17 -3 -12 -7 4 -12 2 -12 -3 0 -6 -3 -11 -7 -11 -10 0 -53 117 -45 124 13 14
33 4 44 -21z m-317 7 c-3 -5 -12 -10 -18 -10 -7 0 -6 4 3 10 19 12 23 12 15 0z
m92 -15 c5 -16 -36 -13 -42 3 -3 9 2 12 17 10 12 -2 23 -8 25 -13z m-1101 -22
c-3 -3 -13 -2 -23 2 -17 7 -17 8 2 15 19 7 34 -5 21 -17z m1238 -31 c10 -31
21 -63 24 -71 3 -9 1 -12 -6 -7 -7 4 -12 2 -12 -4 0 -7 -7 -9 -16 -6 -8 3 -12
2 -9 -3 3 -5 1 -13 -5 -16 -9 -6 -46 64 -64 120 -6 20 7 28 64 44 3 0 13 -25
24 -57z m466 38 c-27 -14 -38 -16 -49 -7 -12 10 -9 13 15 18 58 13 71 9 34
-11z m-2027 -7 c18 -9 35 -16 38 -15 4 0 15 -8 24 -18 17 -19 17 -21 -13 -50
-40 -37 -50 -37 -97 0 -21 17 -42 30 -47 30 -11 0 43 68 55 69 4 1 22 -7 40
-16z m1227 7 c0 -5 -2 -10 -4 -10 -3 0 -8 5 -11 10 -3 6 -1 10 4 10 6 0 11 -4
11 -10z m-1015 -60 c-4 -7 0 -10 10 -8 10 2 20 -4 22 -12 4 -13 3 -13 -6 0 -9
12 -11 12 -11 1 0 -8 8 -20 18 -28 15 -12 14 -13 -15 -8 -28 6 -34 3 -44 -19
-12 -26 -29 -35 -29 -15 0 5 -5 7 -12 3 -9 -6 -9 -9 0 -12 7 -2 12 -14 12 -26
0 -12 5 -27 11 -33 7 -7 8 -17 2 -28 -9 -15 -11 -15 -26 -1 -8 9 -20 16 -26
16 -6 0 -8 8 -5 18 4 10 3 13 -3 6 -9 -12 -45 -15 -53 -5 -3 3 -35 22 -73 41
-37 19 -80 44 -95 57 -23 18 -24 22 -11 28 11 4 38 -8 75 -34 60 -42 74 -48
74 -32 0 4 26 36 58 70 l57 62 23 -21 c13 -12 26 -19 30 -16 3 4 -4 13 -16 22
-12 8 -20 19 -17 24 3 5 17 -2 31 -15 14 -13 23 -29 19 -35z m1123 38 c-2 -6
-10 -14 -16 -16 -7 -2 -10 2 -6 12 7 18 28 22 22 4z m857 -17 c15 -17 14 -19
-12 -24 -16 -3 -34 0 -43 8 -8 7 -22 10 -30 7 -12 -4 -13 -3 -3 10 18 21 68
20 88 -1z m-2347 -71 c-25 -40 -34 -48 -48 -40 -39 21 -39 34 -2 77 34 39 37
40 58 26 l22 -14 -30 -49z m1082 -47 c0 -4 -10 3 -21 17 -34 42 -59 84 -59
100 0 8 18 -13 40 -47 22 -34 40 -66 40 -70z m479 113 c10 -12 8 -13 -8 -9
-12 3 -21 9 -21 14 0 14 16 11 29 -5z m668 -6 c-1 -21 -21 -27 -32 -10 -8 13
3 30 20 30 8 0 13 -9 12 -20z m-357 6 c0 -3 -4 -8 -10 -11 -5 -3 -10 -1 -10 4
0 6 5 11 10 11 6 0 10 -2 10 -4z m-580 -27 c0 -4 -7 -6 -15 -3 -9 4 -15 0 -15
-10 0 -9 7 -16 16 -16 8 0 12 -4 9 -10 -10 -16 -23 -12 -35 10 -8 15 -7 24 2
34 13 14 38 11 38 -5z m55 3 c-11 -3 -23 -9 -27 -16 -5 -7 -8 -5 -8 6 0 19 18
28 40 19 12 -4 10 -6 -5 -9z m142 2 c-3 -3 -12 -4 -19 -1 -8 3 -5 6 6 6 11 1
17 -2 13 -5z m83 -35 c0 -5 -13 0 -30 13 -16 12 -30 23 -30 25 0 2 14 -3 30
-12 17 -9 30 -20 30 -26z m-160 21 c-20 -13 -33 -13 -25 0 3 6 14 10 23 10 15
0 15 -2 2 -10z m1075 -38 c-3 -3 -13 2 -23 11 -10 10 -22 14 -27 10 -4 -5 -5
-2 -1 4 5 10 13 9 32 -3 13 -9 22 -19 19 -22z m-1146 8 c-20 -11 -54 -37 -75
-60 -27 -28 -40 -36 -46 -27 -5 9 -10 9 -19 0 -15 -15 -22 -73 -8 -73 6 0 8
-8 5 -17 -3 -10 2 -28 12 -40 14 -18 21 -19 42 -11 14 6 30 12 35 13 6 2 22 6
38 10 43 11 31 -2 -25 -29 -75 -34 -98 -40 -98 -24 0 7 -7 26 -15 42 -8 15
-12 32 -9 37 3 5 -2 16 -10 24 -8 9 -13 22 -10 29 3 8 1 17 -5 20 -6 4 -7 14
-4 23 4 11 3 14 -5 9 -7 -4 -12 -3 -12 3 0 17 20 23 35 11 10 -8 15 -9 15 -2
0 6 -9 14 -20 17 -21 7 -28 25 -10 25 6 0 10 -5 10 -11 0 -6 8 -8 18 -5 9 2
33 7 52 11 34 7 34 6 13 -9 -12 -9 -29 -13 -40 -9 -17 6 -17 5 1 -16 l20 -22
35 35 c36 34 87 65 106 65 6 0 -6 -9 -26 -19z m591 16 c0 -3 -4 -8 -10 -11 -5
-3 -10 -1 -10 4 0 6 5 11 10 11 6 0 10 -2 10 -4z m290 -21 c-7 -9 -15 -13 -19
-10 -3 3 1 10 9 15 21 14 24 12 10 -5z m-604 -31 c-4 -14 -18 -38 -33 -52 -14
-15 -22 -21 -19 -14 4 6 3 12 -3 12 -5 0 -12 -6 -14 -12 -4 -10 -6 -10 -6 0
-1 7 6 15 14 18 8 4 15 13 15 21 0 8 4 11 10 8 5 -3 12 6 16 20 3 14 11 25 16
25 6 0 7 -11 4 -26z m899 6 c-3 -5 -12 -10 -18 -10 -7 0 -6 4 3 10 19 12 23
12 15 0z m-875 -20 c0 -5 -2 -10 -4 -10 -3 0 -8 5 -11 10 -3 6 -1 10 4 10 6 0
11 -4 11 -10z m140 -11 c0 -6 -4 -7 -10 -4 -5 3 -10 11 -10 16 0 6 5 7 10 4 6
-3 10 -11 10 -16z m690 15 c0 -3 -7 -12 -15 -20 -13 -14 -15 -13 -15 5 0 12 6
21 15 21 8 0 15 -3 15 -6z m-74 -17 c6 -6 -3 -8 -31 -7 -6 0 -26 -15 -58 -46
-12 -12 -40 -34 -61 -50 -32 -23 -37 -25 -28 -9 14 26 84 94 114 110 24 13 52
14 64 2z m-1286 -52 c13 -31 20 -59 16 -62 -3 -3 -6 -1 -6 5 0 7 -11 35 -24
62 -13 28 -21 50 -16 50 4 0 18 -25 30 -55z m606 30 c-11 -8 -22 -12 -25 -9
-6 6 19 24 34 24 6 -1 1 -7 -9 -15z m803 -19 c-2 -2 -20 -6 -39 -9 -19 -2 -27
-2 -18 0 9 2 22 11 29 19 8 10 15 12 22 5 6 -6 9 -13 6 -15z m-1260 -83 l25
-12 -28 -7 c-20 -5 -32 -2 -44 11 -16 16 -16 17 5 6 32 -16 36 -14 13 9 -11
11 -20 32 -19 48 0 26 1 25 12 -8 7 -19 23 -40 36 -47z m266 58 c-3 -6 -16
-16 -28 -22 -20 -10 -20 -9 3 14 25 24 38 28 25 8z m-1165 -1 c0 -5 -5 -10
-11 -10 -5 0 -7 5 -4 10 3 6 8 10 11 10 2 0 4 -4 4 -10z m1224 -15 c-4 -8 -11
-12 -16 -9 -6 4 -5 10 3 15 19 12 19 11 13 -6z m-1225 -8 c-2 -1 -12 -9 -22
-16 -15 -12 -17 -12 -11 3 3 9 13 16 22 16 8 0 13 -1 11 -3z m-679 -17 c8 -5
11 -10 5 -10 -5 0 -17 5 -25 10 -8 5 -10 10 -5 10 6 0 17 -5 25 -10z m2900 -7
c7 -6 -31 -33 -46 -33 -7 0 -9 10 -6 25 4 21 9 24 26 19 11 -4 23 -9 26 -11z
m-920 -3 c0 -5 -4 -10 -10 -10 -5 0 -10 5 -10 10 0 6 5 10 10 10 6 0 10 -4 10
-10z m-886 -24 c-3 -8 -19 -19 -36 -25 -38 -13 -38 -13 -38 -2 0 5 13 12 30
16 16 4 32 11 35 16 9 14 15 11 9 -5z m629 7 c-7 -2 -19 -2 -25 0 -7 3 -2 5
12 5 14 0 19 -2 13 -5z m47 -3 c0 -5 -8 -10 -17 -10 -15 0 -16 2 -3 10 19 12
20 12 20 0z m680 1 c0 -5 -9 -11 -21 -14 -16 -4 -18 -3 -8 9 13 16 29 19 29 5z
m-760 -28 c0 -5 -9 -19 -19 -32 -15 -20 -18 -21 -18 -5 0 11 7 24 16 31 19 15
21 15 21 6z m-1950 -14 c72 -16 77 -18 60 -30 -11 -8 -4 -9 25 -4 31 4 37 3
25 -5 -12 -9 -8 -10 19 -6 26 5 32 3 28 -8 -4 -9 3 -16 18 -20 13 -3 31 -9 41
-13 12 -5 15 -3 9 6 -6 10 -3 11 14 2 24 -13 28 -23 6 -15 -26 11 -16 -2 32
-40 62 -48 48 -46 -23 4 -67 47 -83 53 -237 84 -77 16 -126 22 -140 17 -24 -9
-51 -37 -60 -61 -4 -10 -6 -8 -6 6 -2 40 69 90 129 93 8 0 35 -4 60 -10z
m3030 3 c0 -5 -20 -17 -45 -29 -36 -16 -47 -18 -55 -8 -8 10 -1 17 32 28 50
18 68 20 68 9z m-985 -12 c-3 -5 -14 -10 -23 -9 -14 0 -13 2 3 9 27 11 27 11
20 0z m-155 -27 c0 -12 -89 -49 -107 -45 -9 2 -12 -1 -8 -7 4 -7 -4 -11 -20
-11 -21 0 -26 4 -21 16 5 14 4 15 -8 5 -8 -7 -17 -8 -20 -3 -3 4 8 16 25 26
16 9 29 12 29 7 0 -16 62 -13 84 4 21 16 46 20 46 8z m50 -23 c-8 -5 -22 -9
-30 -9 -10 0 -8 3 5 9 27 12 43 12 25 0z m-835 -10 c3 -5 1 -10 -4 -10 -6 0
-11 5 -11 10 0 6 2 10 4 10 3 0 8 -4 11 -10z m585 -20 c0 -5 -10 -10 -22 -10
-19 0 -20 2 -8 10 19 13 30 13 30 0z m153 -15 c-11 -8 -23 -24 -26 -35 -5 -18
-1 -21 21 -18 21 2 26 8 25 26 -2 12 2 22 7 22 6 0 10 -16 10 -35 0 -24 -5
-35 -15 -35 -8 0 -15 -5 -15 -12 0 -6 -3 -8 -7 -5 -3 4 -12 2 -20 -4 -17 -15
-44 6 -36 27 3 9 0 12 -8 9 -9 -3 -14 3 -15 20 -2 28 5 31 25 13 11 -11 13
-10 9 2 -3 9 6 21 26 31 37 18 49 15 19 -6z m-1537 -17 l19 -23 -25 20 c-14
11 -27 21 -29 22 -2 2 0 3 6 3 5 0 18 -10 29 -22z m153 -63 c25 -22 67 -57 93
-78 42 -34 46 -40 36 -57 -12 -19 -13 -19 -23 0 -19 35 -107 121 -172 167 -35
25 -63 47 -63 50 0 10 86 -44 129 -82z m246 75 c3 -5 1 -10 -4 -10 -6 0 -11 5
-11 10 0 6 2 10 4 10 3 0 8 -4 11 -10z m925 -15 c0 -8 -4 -15 -10 -15 -5 0 -7
7 -4 15 4 8 8 15 10 15 2 0 4 -7 4 -15z m-34 -12 c7 -10 14 -27 14 -38 0 -11
7 -30 15 -42 9 -13 11 -24 6 -28 -13 -8 -41 34 -41 62 0 13 -4 23 -9 23 -6 0
-9 9 -8 20 2 25 6 25 23 3z m69 7 c3 -5 1 -10 -4 -10 -6 0 -11 5 -11 10 0 6 2
10 4 10 3 0 8 -4 11 -10z m88 -25 c-3 -8 -9 -15 -14 -15 -10 0 -12 24 -3 33
11 11 24 -3 17 -18z m-893 0 c0 -8 -2 -15 -4 -15 -2 0 -6 7 -10 15 -3 8 -1 15
4 15 6 0 10 -7 10 -15z m660 -100 c10 -9 30 -17 44 -17 19 0 27 -9 40 -41 17
-43 15 -54 -6 -41 -7 5 -17 9 -23 10 -5 0 -15 2 -22 2 -12 2 -46 56 -88 141
-34 67 -31 77 5 15 16 -28 39 -59 50 -69z m190 94 c0 -11 -4 -17 -10 -14 -5 3
-10 13 -10 21 0 8 5 14 10 14 6 0 10 -9 10 -21z m-20 -24 c0 -8 -4 -15 -10
-15 -5 0 -10 7 -10 15 0 8 5 15 10 15 6 0 10 -7 10 -15z m1157 -11 c-3 -4 9
-23 28 -43 19 -20 40 -52 46 -71 6 -19 23 -59 36 -87 13 -29 22 -61 19 -70 -4
-11 -44 -32 -106 -57 -137 -53 -134 -50 -115 -111 19 -65 19 -74 -3 -68 -10 2
-24 -3 -31 -11 -8 -9 -19 -16 -25 -16 -6 0 4 13 21 28 23 18 30 31 24 40 -6
11 -20 5 -61 -26 -49 -38 -190 -106 -255 -123 -23 -7 -19 -8 23 -5 28 2 52 0
52 -4 0 -8 -75 -20 -129 -20 -61 0 -301 57 -301 72 0 4 -26 15 -57 23 -78 22
-163 56 -163 65 0 4 9 10 20 13 24 6 80 -13 80 -28 0 -26 96 -47 273 -60 98
-8 109 -25 15 -25 -34 0 -59 -2 -56 -5 12 -13 225 -5 273 9 98 28 157 55 201
91 57 47 69 69 55 103 -13 33 -33 110 -36 138 -2 12 -7 30 -13 40 -6 11 -12
44 -14 73 l-3 55 34 7 c18 4 37 12 41 18 3 7 20 14 36 17 16 3 31 8 34 12 7
10 43 31 54 31 5 1 7 -2 3 -5z m-1187 -85 c0 -6 -4 -7 -10 -4 -5 3 -10 11 -10
16 0 6 5 7 10 4 6 -3 10 -11 10 -16z m75 11 c-3 -5 -12 -10 -18 -10 -7 0 -6 4
3 10 19 12 23 12 15 0z m866 -38 c-20 -3 -25 -13 -22 -39 1 -7 -3 -13 -9 -13
-6 0 -8 5 -4 11 4 8 -1 9 -16 4 -17 -5 -21 -3 -18 10 1 9 6 15 10 13 3 -2 16
10 29 26 21 27 23 28 36 10 13 -17 12 -19 -6 -22z m-901 18 c0 -5 -4 -10 -10
-10 -5 0 -10 5 -10 10 0 6 5 10 10 10 6 0 10 -4 10 -10z m-1045 -10 c3 -5 1
-10 -4 -10 -6 0 -11 5 -11 10 0 6 2 10 4 10 3 0 8 -4 11 -10z m113 -56 c-7
-15 -19 -29 -26 -32 -7 -2 -2 12 10 31 27 40 36 41 16 1z m1593 6 c30 -22 30
-50 0 -50 -24 0 -41 20 -41 47 0 28 4 28 41 3z m-1704 -22 c-3 -7 -5 -2 -5 12
0 14 2 19 5 13 2 -7 2 -19 0 -25z m1695 -45 c17 -15 26 -63 11 -63 -16 0 -43
35 -43 57 0 27 7 29 32 6z m-1702 -28 c-7 -9 -15 -13 -19 -10 -3 3 1 10 9 15
21 14 24 12 10 -5z m1925 5 c3 -5 3 -15 -1 -21 -6 -11 -23 6 -24 24 0 10 18 9
25 -3z m-119 -77 c-11 -11 -19 6 -11 24 8 17 8 17 12 0 3 -10 2 -21 -1 -24z
m571 -45 c-3 -10 0 -15 8 -12 13 5 30 -24 20 -34 -3 -3 -5 0 -5 8 0 9 -3 10
-14 1 -11 -9 -16 -3 -25 33 -14 58 -14 65 5 41 8 -11 13 -28 11 -37z m-1389
-17 c2 -6 -1 -11 -6 -11 -14 0 -62 40 -62 52 0 12 63 -26 68 -41z m17 29 c10
-11 14 -20 8 -20 -5 0 -18 9 -28 20 -10 11 -14 20 -8 20 5 0 18 -9 28 -20z
m162 -15 c12 -39 14 -36 -54 -71 -24 -12 -43 -17 -43 -12 0 5 14 15 31 21 28
11 30 15 25 49 -6 34 0 44 25 47 3 1 10 -15 16 -34z m1606 0 c-27 -19 -180
-85 -196 -85 -19 0 72 50 138 75 71 28 87 31 58 10z m-1443 -15 c-36 -11 -52
-11 -45 0 3 6 21 10 38 9 31 -1 31 -1 7 -9z m1076 -72 c4 -6 3 -8 -3 -5 -10 6
-87 -13 -99 -26 -4 -4 -19 -7 -33 -8 -24 0 -24 -1 -6 -9 15 -7 9 -9 -25 -9
-25 -1 -56 -4 -70 -6 -16 -3 -11 2 15 14 22 11 74 27 114 35 41 9 76 18 79 21
9 8 20 6 28 -7z m-1327 -102 c-5 -6 -9 -15 -9 -20 0 -6 4 -5 9 3 5 8 16 11 26
7 14 -5 15 -9 5 -22 -7 -8 -19 -13 -27 -10 -9 4 -21 -6 -31 -24 -20 -35 -29
-36 -61 -10 -21 19 -22 23 -10 51 l12 31 20 -27 20 -27 14 32 c10 25 10 36 2
46 -6 8 -15 12 -19 9 -5 -3 -12 0 -16 6 -5 8 -3 9 6 4 9 -6 10 -1 5 16 -5 19
0 16 28 -16 22 -25 32 -44 26 -49z m1391 68 c0 -2 -7 -4 -15 -4 -8 0 -15 4
-15 10 0 5 7 7 15 4 8 -4 15 -8 15 -10z m-1280 -14 c0 -5 -5 -10 -11 -10 -5 0
-7 -4 -4 -10 3 -5 0 -10 -8 -10 -23 0 -28 12 -9 26 21 16 32 17 32 4z m1053
-77 c-7 -2 -19 -2 -25 0 -7 3 -2 5 12 5 14 0 19 -2 13 -5z m234 1 c-3 -3 -12
-4 -19 -1 -8 3 -5 6 6 6 11 1 17 -2 13 -5z m-547 -14 c-8 -5 -19 -10 -25 -10
-5 0 -3 5 5 10 8 5 20 10 25 10 6 0 3 -5 -5 -10z m467 3 c-20 -2 -52 -2 -70 0
-17 2 0 4 38 4 39 0 53 -2 32 -4z m-507 -17 c0 -11 -19 -15 -25 -6 -3 5 1 10
9 10 9 0 16 -2 16 -4z m378 -16 c29 -5 83 -10 120 -10 65 -1 66 -1 36 -14 -41
-18 -152 -6 -214 23 -46 21 -41 21 58 1z m12 -70 c13 -9 13 -10 0 -10 -8 0
-22 5 -30 10 -13 9 -13 10 0 10 8 0 22 -5 30 -10z m145 -20 l30 -8 -35 0 c-19
0 -44 3 -55 8 -18 8 -18 9 5 8 14 0 39 -4 55 -8z m-65 -70 c0 -5 -7 -10 -15
-10 -8 0 -15 5 -15 10 0 6 7 10 15 10 8 0 15 -4 15 -10z m-1132 -91 c-2 -6 -8
-10 -13 -10 -5 0 -11 4 -13 10 -2 6 4 11 13 11 9 0 15 -5 13 -11z m1587 -29
c-3 -5 -11 -10 -16 -10 -6 0 -7 5 -4 10 3 6 11 10 16 10 6 0 7 -4 4 -10z
m-385 -24 c0 -2 -7 -7 -16 -10 -8 -3 -12 -2 -9 4 6 10 25 14 25 6z m105 -6
c15 -6 7 -9 -30 -9 -36 -1 -46 2 -35 9 18 12 38 12 65 0z m-174 -54 c55 -25
231 -53 269 -43 11 3 20 2 20 -3 0 -22 -149 -17 -251 10 -25 6 -59 22 -75 35
-37 31 -29 31 37 1z m-368 -82 c-9 -22 -34 -60 -56 -86 -21 -27 -35 -53 -31
-60 4 -7 3 -8 -5 -4 -6 4 -20 2 -29 -6 -16 -12 -16 -11 -2 7 8 11 31 39 50 62
20 22 47 62 60 87 28 55 38 55 13 0z m-590 -1 c-7 -2 -19 -2 -25 0 -7 3 -2 5
12 5 14 0 19 -2 13 -5z m-70 -10 c-13 -2 -33 -2 -45 0 -13 2 -3 4 22 4 25 0
35 -2 23 -4z m664 -60 c-26 -41 -67 -82 -67 -67 0 5 12 20 25 33 14 13 33 36
42 52 9 16 19 27 21 25 2 -2 -8 -21 -21 -43z m-607 -3 c0 -5 -5 -10 -11 -10
-5 0 -7 5 -4 10 3 6 8 10 11 10 2 0 4 -4 4 -10z m620 -79 c-6 -23 -15 -39 -20
-36 -4 3 -1 23 7 45 20 51 28 45 13 -9z m-731 -5 c-2 -2 -17 -6 -34 -10 -22
-5 -26 -4 -15 4 14 9 59 15 49 6z m94 -13 c-13 -2 -33 -2 -45 0 -13 2 -3 4 22
4 25 0 35 -2 23 -4z m581 -61 c3 -5 -9 -19 -27 -33 l-32 -23 25 31 c29 37 27
36 34 25z m18 -34 c-7 -7 -12 -8 -12 -2 0 14 12 26 19 19 2 -3 -1 -11 -7 -17z
m-414 -44 l47 -14 -60 5 c-33 3 -80 12 -105 20 l-45 15 58 -6 c33 -4 80 -13
105 -20z"/>
<path d="M2658 5033 c7 -3 16 -2 19 1 4 3 -2 6 -13 5 -11 0 -14 -3 -6 -6z"/>
<path d="M2598 5023 c7 -3 16 -2 19 1 4 3 -2 6 -13 5 -11 0 -14 -3 -6 -6z"/>
<path d="M2057 4739 c-32 -23 -56 -43 -54 -46 5 -4 117 76 117 83 0 7 -5 4
-63 -37z"/>
<path d="M1470 3271 c0 -5 5 -13 10 -16 6 -3 10 -2 10 4 0 5 -4 13 -10 16 -5
3 -10 2 -10 -4z"/>
<path d="M1736 3215 c4 -8 10 -12 15 -9 14 8 10 24 -6 24 -9 0 -12 -6 -9 -15z"/>
<path d="M1846 2977 c-3 -12 -9 -16 -17 -12 -7 5 -10 3 -7 -6 3 -8 19 -14 41
-14 34 -1 35 0 20 17 -10 11 -12 18 -5 18 7 0 12 4 12 8 0 17 -39 7 -44 -11z"/>
<path d="M1000 2700 c0 -5 10 -10 23 -10 18 0 19 2 7 10 -19 13 -30 13 -30 0z"/>
<path d="M2625 5519 c13 -5 -19 -6 -85 -3 -126 8 -128 -4 -3 -16 48 -5 95 -11
103 -14 8 -3 22 -1 30 4 13 9 12 12 -4 25 -11 8 -29 15 -40 14 -21 0 -21 -1
-1 -10z"/>
<path d="M2350 5500 c0 -5 9 -10 19 -10 11 0 23 5 26 10 4 6 -5 10 -19 10 -14
0 -26 -4 -26 -10z"/>
<path d="M2290 5490 c0 -5 7 -10 15 -10 8 0 15 5 15 10 0 6 -7 10 -15 10 -8 0
-15 -4 -15 -10z"/>
<path d="M2193 5463 c-39 -13 -58 -33 -33 -33 6 0 10 5 10 11 0 6 7 9 15 5 8
-3 15 -1 15 5 0 6 7 9 15 5 8 -3 15 -1 15 4 0 5 10 11 23 13 18 4 19 4 2 5
-11 0 -39 -6 -62 -15z"/>
<path d="M2111 5421 c-7 -5 -9 -11 -5 -14 5 -3 15 1 22 9 14 16 5 18 -17 5z"/>
<path d="M3170 5420 c0 -5 5 -10 10 -10 6 0 10 5 10 10 0 6 -4 10 -10 10 -5 0
-10 -4 -10 -10z"/>
<path d="M2045 5379 c-11 -16 -1 -19 13 -3 7 8 8 14 3 14 -5 0 -13 -5 -16 -11z"/>
<path d="M1438 5364 c-4 -5 0 -18 8 -29 15 -20 17 -12 5 19 -4 11 -10 15 -13
10z"/>
<path d="M2010 5361 c0 -4 -30 -31 -67 -59 -38 -27 -79 -61 -92 -75 -13 -14
-29 -23 -35 -21 -20 8 -88 -66 -120 -129 -30 -61 -29 -93 1 -38 24 42 215 231
281 277 49 35 64 54 42 54 -5 0 -10 -4 -10 -9z m-230 -206 c-49 -50 -67 -60
-30 -17 31 35 61 62 68 62 3 0 -14 -20 -38 -45z"/>
<path d="M3215 5360 c3 -5 8 -10 11 -10 2 0 4 5 4 10 0 6 -5 10 -11 10 -5 0
-7 -4 -4 -10z"/>
<path d="M1745 5264 c-140 -64 -155 -70 -197 -84 -41 -12 -59 -30 -32 -30 38
0 324 126 339 150 10 17 -6 12 -110 -36z"/>
<path d="M1430 5236 c0 -8 5 -18 10 -21 6 -3 10 1 10 9 0 8 -4 18 -10 21 -5 3
-10 -1 -10 -9z"/>
<path d="M1380 5215 c-1 -21 43 -155 51 -155 5 0 9 1 9 3 0 9 -59 160 -60 152z"/>
<path d="M1460 5210 c0 -5 5 -10 11 -10 5 0 7 5 4 10 -3 6 -8 10 -11 10 -2 0
-4 -4 -4 -10z"/>
<path d="M1525 5100 c3 -5 11 -10 16 -10 6 0 7 5 4 10 -3 6 -11 10 -16 10 -6
0 -7 -4 -4 -10z"/>
<path d="M1120 4959 c0 -19 5 -41 10 -49 7 -10 8 -1 4 30 -8 56 -14 64 -14 19z"/>
<path d="M3745 4981 c-3 -6 -1 -11 4 -11 6 0 11 -5 11 -11 0 -6 -7 -8 -17 -4
-15 5 -16 4 -5 -7 15 -15 47 1 47 23 0 17 -31 24 -40 10z"/>
<path d="M1158 4836 c9 -25 18 -43 20 -41 6 5 -21 85 -28 85 -4 0 0 -20 8 -44z"/>
<path d="M1237 4853 c-20 -40 -27 -76 -18 -91 5 -9 10 3 15 34 3 26 11 53 17
61 7 7 9 16 6 19 -3 3 -12 -7 -20 -23z"/>
<path d="M1518 4853 c7 -3 16 -2 19 1 4 3 -2 6 -13 5 -11 0 -14 -3 -6 -6z"/>
<path d="M1820 4843 c0 -13 5 -23 10 -23 13 0 13 11 0 30 -8 12 -10 11 -10 -7z"/>
<path d="M1284 4776 c-3 -14 -2 -32 3 -41 7 -12 10 -6 11 24 2 46 -4 54 -14
17z"/>
<path d="M3423 4753 c-19 -22 -20 -27 -8 -39 9 -9 24 -12 39 -8 22 5 23 8 14
35 -13 39 -19 41 -45 12z"/>
<path d="M1182 4750 c0 -14 2 -19 5 -12 2 6 2 18 0 25 -3 6 -5 1 -5 -13z"/>
<path d="M3500 4709 c0 -16 4 -19 18 -14 9 4 34 9 55 12 50 7 29 23 -30 23
-37 0 -43 -3 -43 -21z"/>
<path d="M1093 4674 c-33 -63 -34 -214 -1 -307 12 -33 16 -36 31 -25 13 10 18
36 23 123 7 112 -2 172 -29 210 -14 18 -15 18 -24 -1z"/>
<path d="M4299 4604 c-10 -28 -28 -219 -29 -312 0 -36 3 -43 18 -40 15 3 17
16 15 118 -1 63 2 146 8 184 10 75 6 95 -12 50z"/>
<path d="M4356 4613 c-26 -89 -36 -363 -13 -363 11 0 15 38 20 173 3 94 9 180
12 190 4 9 3 17 -3 17 -6 0 -13 -8 -16 -17z"/>
<path d="M4616 4621 c-6 -9 44 -35 52 -27 7 8 -19 36 -34 36 -7 0 -15 -4 -18
-9z"/>
<path d="M4050 4609 c0 -6 6 -9 14 -6 7 3 24 -1 36 -10 21 -15 21 -14 8 6 -13
22 -58 29 -58 10z"/>
<path d="M4120 4611 c0 -4 16 -7 36 -5 29 2 33 0 23 -12 -9 -11 -9 -14 1 -14
9 0 10 -3 1 -13 -6 -8 -7 -18 -3 -23 4 -5 -5 1 -19 14 -16 14 -28 19 -31 12
-2 -8 -11 -7 -31 3 -14 8 -24 17 -20 21 4 4 0 4 -9 1 -9 -4 -14 -13 -11 -21 3
-8 0 -14 -6 -14 -6 0 -11 7 -11 15 0 8 -4 15 -10 15 -5 0 -11 -19 -11 -42 -1
-24 -3 -59 -4 -78 -9 -111 -16 -198 -20 -222 -3 -20 0 -28 10 -28 12 0 15 17
15 88 0 85 11 127 27 107 5 -6 7 -53 5 -106 l-3 -97 -40 -6 c-36 -6 -50 -18
-31 -29 13 -9 327 23 330 33 2 5 18 10 35 11 31 1 31 1 7 9 -14 4 -43 8 -65 9
l-40 1 6 167 c3 93 9 179 14 192 5 17 4 22 -6 19 -17 -6 -26 -54 -34 -188 -8
-147 -15 -190 -27 -190 -12 0 -5 284 8 349 l7 31 -47 0 c-25 0 -46 -4 -46 -9z
m-40 -59 c0 -4 -9 -15 -19 -24 -14 -12 -21 -13 -24 -5 -2 7 3 17 12 24 19 14
31 16 31 5z m67 -12 c18 -22 16 -34 -2 -16 -9 8 -23 12 -32 9 -10 -4 -14 -2
-10 4 4 6 1 14 -5 17 -7 2 -2 4 12 3 14 -1 30 -9 37 -17z m-31 -40 c0 -17 -38
-22 -52 -7 -5 4 0 5 11 1 14 -6 17 -4 13 7 -4 9 0 15 11 15 9 0 17 -7 17 -16z
m64 -4 c0 -2 -7 -7 -16 -10 -8 -3 -12 -2 -9 4 6 10 25 14 25 6z m-115 -26 c17
-18 17 -20 2 -14 -14 5 -16 2 -10 -12 6 -16 5 -17 -9 -4 -11 11 -13 17 -4 23
8 5 7 10 -4 17 -8 5 -10 10 -4 10 6 0 19 -9 29 -20z m65 -15 c-7 -9 -15 -13
-19 -10 -3 3 1 10 9 15 21 14 24 12 10 -5z m30 -120 c0 -57 -4 -95 -10 -95
-11 0 -14 172 -3 183 12 13 13 7 13 -88z m-52 -15 c-2 -71 -7 -100 -15 -100
-10 0 -13 25 -13 93 0 52 3 97 7 100 19 20 24 -2 21 -93z"/>
<path d="M4150 4581 c0 -5 5 -13 10 -16 6 -3 10 -2 10 4 0 5 -4 13 -10 16 -5
3 -10 2 -10 -4z"/>
<path d="M4656 4571 c-4 -5 3 -7 14 -4 23 6 26 13 6 13 -8 0 -17 -4 -20 -9z"/>
<path d="M1306 4527 c3 -10 9 -15 12 -12 3 3 0 11 -7 18 -10 9 -11 8 -5 -6z"/>
<path d="M4890 4510 c0 -5 7 -7 15 -4 8 4 15 8 15 10 0 2 -7 4 -15 4 -8 0 -15
-4 -15 -10z"/>
<path d="M4921 4481 c-9 -6 -4 -10 16 -14 34 -6 41 -2 16 11 -11 6 -25 7 -32
3z"/>
<path d="M3951 4194 c0 -11 3 -14 6 -6 3 7 2 16 -1 19 -3 4 -6 -2 -5 -13z"/>
<path d="M4672 4170 c0 -14 2 -19 5 -12 2 6 2 18 0 25 -3 6 -5 1 -5 -13z"/>
<path d="M4205 4168 c-156 -11 -245 -28 -255 -49 -6 -10 -10 -19 -10 -21 0 -2
55 -4 123 -4 67 0 109 3 92 6 -22 4 -4 9 64 17 52 6 97 16 101 23 4 7 16 9 29
5 12 -3 19 -10 16 -15 -3 -4 2 -11 11 -14 10 -4 14 -13 10 -24 -5 -14 -4 -14
9 2 10 14 12 23 4 32 -7 8 -7 14 1 19 24 15 2 27 -50 29 -30 0 -95 -2 -145 -6z"/>
<path d="M1220 4160 c0 -5 5 -10 11 -10 5 0 7 5 4 10 -3 6 -8 10 -11 10 -2 0
-4 -4 -4 -10z"/>
<path d="M3419 4155 c-1 -6 -1 -14 0 -18 1 -4 4 -24 7 -45 3 -20 7 -45 10 -54
3 -10 1 -18 -5 -18 -6 0 -11 -8 -11 -18 0 -10 -5 -23 -12 -30 -8 -8 -8 -15 2
-27 8 -10 9 -15 1 -15 -6 0 -11 -7 -11 -15 0 -8 -4 -15 -9 -15 -11 0 -12 -68
-2 -75 4 -2 13 19 21 48 7 29 17 58 23 65 5 6 7 12 4 12 -3 0 1 16 9 36 8 19
16 57 17 84 2 40 -2 54 -20 72 -13 12 -24 18 -24 13z"/>
<path d="M5270 4141 c0 -6 14 -11 30 -11 17 0 30 -4 30 -10 0 -5 -8 -7 -17 -3
-15 5 -16 3 -6 -7 10 -11 16 -10 32 4 26 23 51 14 51 -18 0 -13 3 -33 6 -43 5
-15 4 -16 -5 -3 -9 12 -12 13 -20 1 -6 -9 -11 -10 -15 -2 -4 6 -16 15 -26 21
-18 10 -18 9 -4 -17 7 -16 14 -35 14 -43 0 -11 13 -15 49 -16 44 -1 50 2 67
30 17 30 17 30 0 16 -16 -13 -20 -12 -33 5 -8 11 -12 30 -10 42 2 13 -1 29 -7
37 -14 19 -136 34 -136 17z"/>
<path d="M3721 4114 c0 -11 3 -14 6 -6 3 7 2 16 -1 19 -3 4 -6 -2 -5 -13z"/>
<path d="M5113 4123 c-7 -3 -13 -11 -13 -19 0 -8 -6 -11 -15 -8 -19 8 -20 -10
-1 -25 11 -10 16 -8 24 6 14 25 26 9 12 -16 -12 -24 -30 -27 -48 -9 -19 19
-14 -3 5 -24 15 -17 15 -20 3 -28 -12 -7 -12 -12 -2 -22 10 -10 15 -6 24 20 7
18 19 32 29 32 24 0 32 60 11 81 -10 9 -23 15 -29 12z"/>
<path d="M1113 4114 c3 -4 2 -16 -4 -28 -10 -20 -10 -20 5 -2 19 24 20 36 4
36 -6 0 -8 -3 -5 -6z"/>
<path d="M4285 4100 c27 -12 35 -12 35 0 0 6 -12 10 -27 9 -25 0 -26 -1 -8 -9z"/>
<path d="M5205 4090 c3 -5 15 -10 25 -10 10 0 22 5 25 10 4 6 -7 10 -25 10
-18 0 -29 -4 -25 -10z"/>
<path d="M3710 4080 c0 -5 5 -10 10 -10 6 0 10 5 10 10 0 6 -4 10 -10 10 -5 0
-10 -4 -10 -10z"/>
<path d="M4265 4060 c3 -5 8 -10 11 -10 2 0 4 5 4 10 0 6 -5 10 -11 10 -5 0
-7 -4 -4 -10z"/>
<path d="M4300 4063 c0 -5 7 -17 15 -27 15 -20 20 -10 9 18 -6 16 -24 22 -24
9z"/>
<path d="M4805 4059 c-4 -6 -5 -12 -2 -15 2 -3 7 2 10 11 7 17 1 20 -8 4z"/>
<path d="M4840 4032 c0 -10 7 -27 15 -38 20 -26 19 -38 -2 -29 -15 5 -16 4 -5
-6 21 -22 13 -32 -22 -26 -31 5 -34 3 -39 -21 -3 -16 -1 -31 7 -37 13 -11 19
-55 7 -55 -5 0 -14 7 -21 15 -11 13 -14 13 -26 -2 -18 -24 -17 -58 1 -73 8 -7
16 -30 16 -54 l1 -41 7 37 c8 40 28 71 42 63 4 -3 4 -16 -1 -29 -11 -31 -17
-217 -6 -234 4 -7 1 -15 -9 -18 -10 -4 -12 -10 -6 -18 4 -6 5 -20 1 -31 -7
-19 -8 -19 -18 5 -8 21 -17 26 -43 25 -33 0 -34 -2 -37 -42 -2 -22 1 -56 6
-75 8 -29 13 -33 38 -31 16 1 30 6 32 10 1 4 16 30 33 56 l30 48 28 -21 c16
-11 36 -20 44 -20 8 0 17 -7 21 -15 3 -8 12 -15 21 -15 8 0 15 -4 15 -10 0
-16 -14 -12 -37 10 -17 16 -23 17 -32 6 -13 -16 -4 -49 12 -39 5 3 7 1 4 -4
-4 -6 2 -30 12 -54 11 -24 22 -67 26 -96 6 -50 10 -54 58 -85 29 -18 59 -33
67 -33 23 -1 58 41 70 84 33 125 295 195 507 136 10 -3 2 2 -17 11 -40 19
-104 35 -137 35 -13 -1 -23 4 -23 9 0 6 10 10 23 10 12 0 29 5 37 10 20 13
-110 13 -180 0 -40 -8 -57 -7 -68 2 -13 11 -15 10 -9 -4 7 -20 -3 -24 -20 -7
-8 8 -17 8 -31 0 -28 -15 -37 -14 -23 3 6 8 34 23 61 35 27 12 51 25 55 30 3
6 26 13 50 17 25 3 45 10 45 15 0 5 7 9 16 9 14 0 45 10 174 56 13 4 13 6 0
14 -8 5 -23 7 -32 4 -23 -7 -168 34 -191 54 -18 16 -115 29 -143 18 -14 -5
-12 -10 12 -33 26 -25 27 -28 10 -31 -10 -2 -23 2 -27 9 -24 40 -26 41 -61 31
-20 -5 -41 -6 -48 -2 -11 7 -50 -21 -50 -35 0 -2 -21 -26 -46 -52 -25 -26 -44
-40 -41 -31 3 9 11 45 17 80 18 104 19 107 58 128 65 34 86 58 75 82 -9 20
-10 19 -33 -18 -22 -36 -24 -37 -28 -16 -2 13 4 34 12 48 25 37 3 29 -56 -22
l-53 -45 -3 58 c-1 32 -5 69 -8 83 -6 24 -6 25 -14 4 -7 -18 -14 -21 -42 -15
-22 5 -33 12 -32 24 2 52 5 57 27 58 20 1 20 2 2 6 -30 7 -47 33 -34 50 20 23
65 16 85 -14 11 -17 19 -23 22 -15 3 10 7 10 18 1 11 -9 27 -9 70 0 55 13 76
33 56 53 -9 9 -18 4 -35 -15 -29 -35 -35 -34 -42 6 -4 19 -12 34 -18 35 -59 5
-153 25 -155 32 -6 18 -42 11 -42 -8z m30 -241 c0 -22 5 -43 10 -46 6 -3 10 3
10 15 0 18 5 21 33 18 30 -3 32 -5 30 -38 -1 -19 -2 -86 -2 -147 l-1 -113 -34
0 c-30 0 -34 3 -38 30 -3 17 -2 51 2 75 7 43 6 44 -24 47 -29 3 -31 5 -29 40
1 21 10 49 19 63 11 17 14 35 10 60 -4 22 -3 35 4 35 5 0 10 -18 10 -39z m332
-269 c-6 -5 -22 -28 -35 -52 -16 -31 -36 -51 -61 -63 -21 -10 -40 -16 -43 -14
-2 3 29 37 69 75 40 39 75 68 78 66 2 -3 -1 -8 -8 -12z m-332 -7 c0 -8 -9 -15
-20 -15 -20 0 -26 11 -13 23 12 13 33 7 33 -8z m-110 -90 c7 -8 19 -15 27 -15
22 0 -34 -89 -57 -90 -3 0 -3 27 -2 60 4 62 10 71 32 45z m240 -145 c32 -68
20 -73 -13 -5 -15 30 -23 55 -19 55 5 0 19 -22 32 -50z m455 40 c-3 -5 -25
-10 -48 -9 -33 0 -38 2 -22 9 28 12 78 12 70 0z m-425 -123 c0 -14 -39 -41
-48 -33 -6 7 27 46 40 46 4 0 8 -6 8 -13z m67 -27 c1 -10 -1 -21 -5 -24 -4 -2
-7 9 -7 25 -1 31 7 30 12 -1z"/>
<path d="M5234 4029 c-3 -6 -22 -17 -40 -25 -23 -9 -34 -21 -34 -34 0 -23 -2
-23 39 -9 24 8 31 17 31 36 0 22 2 24 15 13 12 -10 15 -10 15 3 0 8 6 18 13
20 6 3 2 6 -10 6 -12 1 -25 -4 -29 -10z"/>
<path d="M1275 3990 c3 -5 8 -10 11 -10 2 0 4 5 4 10 0 6 -5 10 -11 10 -5 0
-7 -4 -4 -10z"/>
<path d="M3538 3841 c-10 -3 -14 -11 -10 -18 5 -7 13 -9 21 -4 19 12 10 30
-11 22z"/>
<path d="M3353 3801 c-9 -25 -7 -33 13 -57 13 -15 26 -25 29 -22 3 3 -5 16
-18 30 -19 20 -20 27 -10 37 14 13 18 41 5 41 -4 0 -13 -13 -19 -29z"/>
<path d="M5576 3762 c18 -15 37 -37 43 -50 7 -12 16 -20 21 -17 6 4 7 -1 3
-11 -4 -11 -2 -15 4 -11 5 3 21 -6 35 -21 28 -31 61 -82 53 -82 -3 0 11 -23
31 -52 19 -29 38 -65 41 -80 7 -33 12 -38 36 -29 17 6 17 8 -1 27 -15 15 -17
25 -10 38 5 10 7 20 4 23 -3 4 -6 1 -6 -5 0 -7 -4 -12 -10 -12 -5 0 -10 7 -10
15 0 8 -5 15 -11 15 -6 0 -8 7 -5 17 4 9 1 20 -6 25 -10 6 -10 10 2 18 10 7
12 12 4 18 -6 4 -19 23 -29 42 -9 19 -35 56 -56 81 -31 38 -34 46 -18 42 11
-3 26 -14 32 -24 19 -30 29 -22 13 10 -17 31 -68 49 -146 50 l-45 0 31 -27z"/>
<path d="M3310 3730 c-12 -16 -18 -30 -13 -30 5 0 17 14 26 30 10 17 16 30 13
30 -2 0 -14 -13 -26 -30z"/>
<path d="M1608 3673 c7 -3 16 -2 19 1 4 3 -2 6 -13 5 -11 0 -14 -3 -6 -6z"/>
<path d="M1558 3663 c7 -3 16 -2 19 1 4 3 -2 6 -13 5 -11 0 -14 -3 -6 -6z"/>
<path d="M5480 3644 c0 -12 34 -33 53 -34 20 0 22 11 5 28 -12 12 -58 17 -58
6z"/>
<path d="M5171 3623 c13 -15 12 -16 -9 -11 -15 4 -22 2 -19 -5 2 -7 15 -12 28
-12 17 0 25 6 27 23 3 17 -2 22 -19 22 -19 0 -20 -2 -8 -17z"/>
<path d="M3150 3565 c-11 -13 -10 -14 4 -9 9 3 16 10 16 15 0 13 -6 11 -20 -6z"/>
<path d="M5590 3470 c-19 -4 -53 -14 -74 -22 l-39 -14 104 -18 c162 -26 150
-26 143 -2 -15 52 -63 72 -134 56z"/>
<path d="M3890 3421 c0 -6 5 -13 10 -16 6 -3 10 1 10 9 0 9 -4 16 -10 16 -5 0
-10 -4 -10 -9z"/>
<path d="M5765 3411 c-3 -5 -1 -12 5 -16 5 -3 10 1 10 9 0 18 -6 21 -15 7z"/>
<path d="M3724 3340 c-31 -12 -54 -49 -54 -86 0 -77 114 -100 172 -35 35 39
36 74 3 106 -25 26 -78 33 -121 15z"/>
<path d="M5563 3340 c-13 -5 -23 -12 -23 -15 0 -8 53 6 65 16 12 12 -13 11
-42 -1z"/>
<path d="M5911 3306 c-13 -54 -13 -56 -1 -56 9 0 30 61 30 88 0 29 -19 8 -29
-32z"/>
<path d="M5625 3331 c-2 -5 13 -13 35 -20 48 -14 73 -47 101 -137 36 -118 30
-111 72 -74 31 27 37 38 37 72 0 31 3 39 14 35 8 -3 17 1 20 10 8 21 -1 30
-16 15 -7 -7 -26 -12 -42 -11 l-31 1 33 8 c42 10 46 14 34 37 -10 17 -11 17
-17 1 -11 -28 -48 -22 -70 11 -25 38 -29 34 -10 -12 17 -41 21 -112 5 -102 -5
3 -10 19 -10 34 0 29 -62 111 -83 111 -7 0 -24 7 -39 14 -15 8 -30 11 -33 7z"/>
<path d="M4010 3238 c0 -7 5 -20 10 -28 8 -12 10 -11 10 7 0 12 -4 25 -10 28
-5 3 -10 0 -10 -7z"/>
<path d="M5304 3239 c-3 -5 6 -9 20 -9 31 0 34 6 6 13 -11 3 -23 1 -26 -4z"/>
<path d="M5388 3243 c17 -2 47 -2 65 0 17 2 3 4 -33 4 -36 0 -50 -2 -32 -4z"/>
<path d="M5457 3163 c18 -2 50 -2 70 0 21 2 7 4 -32 4 -38 0 -55 -2 -38 -4z"/>
<path d="M4260 3120 c0 -5 5 -10 11 -10 5 0 7 5 4 10 -3 6 -8 10 -11 10 -2 0
-4 -4 -4 -10z"/>
<path d="M5269 3122 c-36 -15 -108 -78 -109 -94 0 -20 -20 -25 -20 -6 0 8 -3
9 -10 2 -8 -8 -7 -19 0 -39 10 -26 9 -27 -17 -21 l-28 7 24 -19 c18 -15 21
-21 10 -25 -12 -5 -12 -7 1 -16 13 -9 12 -11 -4 -11 -20 0 -20 0 0 -15 18 -15
15 -16 -33 -13 -28 2 -49 0 -47 -4 2 -3 -2 -8 -8 -11 -7 -2 16 -4 51 -3 35 1
66 -3 67 -9 2 -5 -13 -10 -33 -11 -48 -1 -84 -10 -97 -25 -8 -9 -6 -10 9 -5
25 9 95 18 77 10 -6 -3 -10 -9 -7 -14 2 -4 -13 -10 -35 -14 -44 -7 -55 -26
-16 -26 14 0 36 -4 51 -10 17 -7 24 -7 20 0 -3 6 -1 10 4 10 6 0 11 -7 11 -15
0 -11 -11 -15 -42 -15 -61 0 -66 -6 -60 -72 3 -42 11 -65 28 -83 28 -30 30
-30 71 -5 24 14 36 32 47 71 9 29 16 60 16 70 0 30 48 123 80 153 33 32 36 41
18 52 -7 5 -8 3 -3 -6 6 -9 4 -11 -5 -5 -9 5 -5 14 15 31 16 13 33 24 38 24 6
0 8 3 4 6 -3 3 -21 -2 -41 -11 -31 -15 -36 -22 -36 -52 0 -22 -4 -32 -11 -28
-6 4 -8 13 -5 21 3 8 1 14 -5 14 -19 0 25 51 60 70 l36 19 -33 1 c-24 0 -42
-8 -64 -30 -16 -16 -31 -30 -33 -30 -8 0 -10 72 -2 77 6 3 7 1 3 -5 -15 -24
20 -11 38 14 l18 26 -23 -12 c-15 -7 -9 2 16 24 22 20 35 36 28 36 -6 0 -15
-4 -18 -10 -3 -5 -11 -10 -18 -10 -6 0 4 11 23 25 33 24 32 31 -1 17z"/>
<path d="M5458 3077 c-27 -6 -48 -15 -48 -20 0 -5 10 -7 23 -4 12 4 41 9 65
13 45 7 69 25 30 23 -13 -1 -44 -6 -70 -12z"/>
<path d="M1260 3060 c34 -11 60 -11 35 0 -11 5 -29 8 -40 8 -16 0 -15 -2 5 -8z"/>
<path d="M1106 3042 c-3 -5 18 -12 47 -16 28 -3 70 -8 92 -11 38 -5 38 -4 -10
10 -67 21 -122 28 -129 17z"/>
<path d="M5646 3038 c3 -4 29 -7 59 -5 29 1 48 5 42 9 -16 10 -107 6 -101 -4z"/>
<path d="M5280 3030 c-8 -5 -10 -10 -5 -10 6 0 17 5 25 10 8 5 11 10 5 10 -5
0 -17 -5 -25 -10z"/>
<path d="M4274 3010 c-6 -6 -24 -12 -40 -13 -25 -2 -28 -6 -26 -27 4 -29 22
-52 22 -28 0 11 6 15 21 11 15 -4 22 0 26 16 3 11 9 21 14 21 5 0 9 7 9 15 0
17 -12 19 -26 5z"/>
<path d="M5473 3008 c-35 -17 -27 -29 10 -14 17 7 39 16 47 19 9 3 5 5 -10 6
-14 0 -35 -5 -47 -11z"/>
<path d="M5667 2993 c-13 -13 -7 -21 13 -16 11 3 20 9 20 14 0 10 -24 12 -33
2z"/>
<path d="M5058 2963 c7 -3 16 -2 19 1 4 3 -2 6 -13 5 -11 0 -14 -3 -6 -6z"/>
<path d="M5463 2910 c0 -30 2 -43 4 -27 2 15 2 39 0 55 -2 15 -4 2 -4 -28z"/>
<path d="M5530 2910 c-12 -8 -11 -10 8 -10 12 0 22 5 22 10 0 13 -11 13 -30 0z"/>
<path d="M5296 2874 c-21 -20 -39 -54 -33 -61 3 -2 16 1 28 8 29 15 66 49 53
49 -5 0 -2 5 6 10 12 8 9 10 -12 10 -15 0 -34 -7 -42 -16z"/>
<path d="M5548 2873 c6 -2 18 -2 25 0 6 3 1 5 -13 5 -14 0 -19 -2 -12 -5z"/>
<path d="M5720 2870 c20 -13 57 -13 65 0 4 6 -11 10 -37 10 -31 0 -39 -3 -28
-10z"/>
<path d="M4281 2854 c-7 -8 -11 -18 -8 -21 9 -9 45 7 51 22 7 20 -25 19 -43
-1z"/>
<path d="M4350 2856 c0 -2 8 -10 18 -17 15 -13 16 -12 3 4 -13 16 -21 21 -21
13z"/>
<path d="M5539 2841 c12 -8 51 -4 51 5 0 2 -15 4 -32 4 -23 0 -29 -3 -19 -9z"/>
<path d="M5465 2820 c4 -14 12 -29 17 -35 7 -7 8 -2 3 15 -4 14 -12 30 -17 35
-7 7 -8 2 -3 -15z"/>
<path d="M4391 2821 c-8 -5 -9 -11 -3 -15 5 -3 15 1 22 9 14 16 3 20 -19 6z"/>
<path d="M4293 2809 c-24 -9 -33 -49 -11 -49 6 0 8 -3 5 -6 -4 -4 -13 -1 -21
5 -9 8 -16 8 -20 2 -4 -5 -1 -13 4 -16 8 -5 6 -13 -5 -25 -8 -9 -13 -24 -9
-34 8 -20 6 -20 52 -1 34 15 38 15 49 -1 12 -16 13 -16 13 -2 0 9 -5 29 -11
45 -7 15 -15 42 -18 59 -5 28 -9 30 -28 23z"/>
<path d="M5303 2805 c-35 -15 -45 -45 -15 -45 12 0 13 -3 5 -8 -10 -7 -10 -28
0 -104 15 -107 32 -143 73 -151 51 -9 88 31 58 64 -9 10 -14 25 -11 33 4 9 2
18 -3 21 -5 3 0 15 12 27 l21 21 -32 13 c-24 10 -30 18 -28 35 2 13 12 26 23
30 14 6 9 8 -18 8 -20 1 -49 6 -65 12 l-28 11 49 18 c26 11 51 21 54 24 11 12
-64 5 -95 -9z"/>
<path d="M5534 2813 c4 -4 30 -8 57 -9 30 0 45 2 37 7 -16 11 -104 12 -94 2z"/>
<path d="M5671 2804 c0 -11 3 -14 6 -6 3 7 2 16 -1 19 -3 4 -6 -2 -5 -13z"/>
<path d="M5740 2810 c-12 -7 -8 -10 17 -10 17 0 40 -3 50 -6 12 -5 15 -4 8 4
-15 16 -58 23 -75 12z"/>
<path d="M5536 2758 c1 -18 6 -43 9 -55 5 -15 3 -23 -5 -23 -19 0 -37 24 -45
58 -3 18 -11 32 -16 32 -5 0 -8 -3 -7 -7 1 -5 -2 -38 -6 -74 -8 -76 6 -125 45
-153 47 -33 105 -5 95 46 -2 14 4 34 14 48 l19 25 10 -27 c6 -15 21 -34 34
-43 32 -21 75 -3 83 34 4 14 13 37 21 50 13 20 13 25 2 33 -11 7 -11 11 -1 15
6 2 12 16 12 29 0 27 -37 48 -65 38 -18 -7 -18 -10 -5 -34 7 -12 7 -21 0 -25
-16 -10 -50 14 -51 38 -1 20 -2 20 -6 2 -3 -11 -9 -24 -14 -30 -5 -5 -9 -21
-9 -36 0 -15 -4 -31 -10 -34 -5 -3 -10 -2 -10 4 0 5 -8 17 -17 26 -15 16 -15
18 0 26 20 12 11 39 -13 39 -10 0 -20 7 -24 15 -3 8 -14 15 -24 15 -14 0 -17
-7 -16 -32z"/>
<path d="M5360 2770 l-25 -8 25 -1 c14 0 32 4 40 9 13 9 13 10 0 9 -8 -1 -26
-5 -40 -9z"/>
<path d="M4360 2750 c0 -5 5 -10 10 -10 6 0 10 5 10 10 0 6 -4 10 -10 10 -5 0
-10 -4 -10 -10z"/>
<path d="M4421 2751 c-8 -5 -11 -16 -7 -28 4 -12 1 -25 -9 -33 -24 -20 -17
-30 18 -23 47 9 63 37 26 46 -17 5 -19 9 -9 26 11 22 4 27 -19 12z"/>
<path d="M4370 2620 c0 -5 5 -10 11 -10 5 0 7 5 4 10 -3 6 -8 10 -11 10 -2 0
-4 -4 -4 -10z"/>
<path d="M4392 2580 c0 -14 2 -19 5 -12 2 6 2 18 0 25 -3 6 -5 1 -5 -13z"/>
<path d="M2330 2546 c0 -9 5 -16 10 -16 6 0 10 4 10 9 0 6 -4 13 -10 16 -5 3
-10 -1 -10 -9z"/>
<path d="M4316 2551 c-9 -14 16 -113 30 -118 7 -2 31 5 53 17 37 18 41 23 35
48 -4 15 -9 29 -11 32 -7 8 -72 7 -67 -1 2 -4 -1 -11 -7 -15 -16 -9 -30 18
-17 33 7 9 7 13 0 13 -6 0 -13 -4 -16 -9z m98 -56 c3 -8 1 -15 -4 -15 -6 0
-10 7 -10 15 0 8 2 15 4 15 2 0 6 -7 10 -15z"/>
<path d="M780 2520 c-8 -5 -12 -12 -9 -15 4 -3 12 1 19 10 14 17 11 19 -10 5z"/>
<path d="M2019 2503 c-25 -29 -13 -167 19 -228 9 -16 15 -38 13 -47 -1 -10 3
-18 8 -18 6 0 10 -5 9 -12 -2 -7 16 -19 39 -27 38 -14 49 -13 114 2 70 17 179
70 179 87 0 19 -60 21 -87 3 -47 -32 -81 -46 -92 -39 -6 4 -11 1 -11 -7 0 -18
-60 -31 -74 -17 -7 7 0 10 20 11 l29 1 -32 8 c-73 17 -96 62 -99 195 -1 55 -7
101 -12 103 -4 1 -15 -5 -23 -15z m82 -285 c27 -31 23 -42 -6 -16 -24 21 -32
38 -19 38 4 0 15 -10 25 -22z"/>
<path d="M2350 2505 c0 -8 -14 -28 -30 -45 -35 -36 -33 -45 12 -54 18 -4 59
-20 90 -36 31 -17 63 -30 70 -30 16 0 -63 79 -79 80 -7 0 -13 7 -13 16 0 22
-30 84 -41 84 -5 0 -9 -7 -9 -15z"/>
<path d="M729 2460 l-24 -20 30 12 c39 15 54 28 33 28 -9 0 -26 -9 -39 -20z"/>
<path d="M4284 2452 c6 -19 4 -20 -44 -24 -26 -3 -26 -7 10 -88 17 -38 30 -74
30 -82 0 -7 8 -22 16 -33 14 -19 15 -17 8 20 -3 22 -11 45 -16 52 -13 16 -4
28 31 42 28 12 28 14 19 49 -5 20 -14 41 -18 46 -5 5 -6 15 -3 22 3 9 -2 14
-17 14 -16 0 -20 -4 -16 -18z"/>
<path d="M740 2430 c-8 -5 -10 -10 -5 -10 6 0 17 5 25 10 8 5 11 10 5 10 -5 0
-17 -5 -25 -10z"/>
<path d="M1305 2414 c11 -8 31 -24 43 -35 13 -11 26 -18 28 -16 7 6 -68 67
-81 67 -5 0 -1 -7 10 -16z"/>
<path d="M688 2365 c-31 -19 -59 -43 -63 -52 -5 -14 -2 -14 17 3 33 30 93 64
112 64 9 0 16 5 16 10 0 18 -25 10 -82 -25z"/>
<path d="M2205 2380 c11 -5 29 -9 40 -9 l20 0 -20 9 c-11 5 -29 9 -40 9 l-20
0 20 -9z"/>
<path d="M2280 2362 c18 -12 121 -34 127 -28 6 6 -53 24 -102 31 -27 4 -35 3
-25 -3z"/>
<path d="M695 2329 c-55 -34 -115 -88 -115 -102 0 -6 22 11 48 35 49 46 71 60
115 77 21 8 24 7 24 -19 0 -18 -5 -26 -12 -23 -7 2 -19 -2 -26 -9 -8 -7 -38
-29 -66 -48 -29 -19 -53 -38 -53 -42 0 -4 -6 -13 -14 -21 -18 -18 -46 -84 -46
-108 0 -30 15 -22 28 15 16 43 127 164 158 172 13 3 21 10 18 15 -3 5 2 6 11
3 8 -4 22 0 31 7 14 11 13 14 -3 23 -10 6 -18 20 -18 31 0 30 -25 28 -80 -6z"/>
<path d="M4430 2330 c34 -11 60 -11 35 0 -11 5 -29 8 -40 8 -16 0 -15 -2 5 -8z"/>
<path d="M4505 2310 c27 -12 43 -12 25 0 -8 5 -22 9 -30 9 -10 0 -8 -3 5 -9z"/>
<path d="M2547 2293 c-4 -6 0 -18 7 -28 10 -14 17 -16 32 -7 19 10 19 11 -1
18 -11 4 -23 12 -26 17 -4 6 -9 5 -12 0z"/>
<path d="M900 2276 c0 -8 5 -18 10 -21 6 -3 10 1 10 9 0 8 -4 18 -10 21 -5 3
-10 -1 -10 -9z"/>
<path d="M760 2222 c-61 -38 -137 -126 -166 -189 -23 -49 -32 -131 -17 -147 4
-3 21 33 38 82 44 122 126 245 153 228 15 -9 45 19 41 38 -4 15 -9 13 -49 -12z"/>
<path d="M2438 2214 c-7 -16 -18 -33 -25 -37 -16 -10 -16 -32 0 -58 10 -17 9
-22 -5 -33 -10 -7 -18 -19 -18 -25 0 -7 8 -11 18 -9 12 2 17 -3 16 -19 0 -12
3 -20 8 -17 12 7 57 -29 58 -46 0 -11 6 -9 19 7 28 34 17 63 -24 63 -28 0 -34
4 -39 28 -17 86 -17 101 -1 132 9 17 14 34 11 37 -3 3 -11 -7 -18 -23z"/>
<path d="M800 2180 c0 -5 5 -10 10 -10 6 0 10 5 10 10 0 6 -4 10 -10 10 -5 0
-10 -4 -10 -10z"/>
<path d="M2370 2153 c0 -16 5 -35 10 -43 7 -11 9 -3 8 28 -1 46 -18 60 -18 15z"/>
<path d="M820 2136 c0 -24 16 -43 26 -33 8 7 -7 57 -17 57 -5 0 -9 -11 -9 -24z"/>
<path d="M860 2150 c0 -5 5 -10 11 -10 5 0 7 5 4 10 -3 6 -8 10 -11 10 -2 0
-4 -4 -4 -10z"/>
<path d="M723 2053 c-74 -73 -107 -117 -100 -136 2 -7 10 -1 17 13 6 14 36 45
66 70 30 24 54 52 54 61 0 10 12 27 26 38 15 12 22 21 16 21 -5 0 -41 -30 -79
-67z"/>
<path d="M720 1869 c0 -5 5 -7 10 -4 6 3 10 8 10 11 0 2 -4 4 -10 4 -5 0 -10
-5 -10 -11z"/>
<path d="M708 1844 c-4 -4 -3 -15 3 -25 7 -14 6 -17 -5 -13 -9 3 -16 -4 -20
-23 -4 -15 -21 -56 -37 -91 -16 -34 -29 -70 -28 -80 0 -9 9 3 20 28 26 59 64
116 111 165 l37 40 -26 2 c-16 0 -21 -2 -13 -7 9 -6 9 -9 0 -15 -6 -4 -17 0
-23 10 -7 9 -16 13 -19 9z"/>
<path d="M660 1815 c-7 -9 -11 -18 -8 -20 3 -3 11 1 18 10 7 9 11 18 8 20 -3
3 -11 -1 -18 -10z"/>
<path d="M621 1754 c-12 -15 -21 -32 -21 -40 0 -7 -3 -21 -6 -31 -7 -21 39 53
49 80 9 24 2 21 -22 -9z"/>
<path d="M1610 1761 c0 -10 8 -21 18 -23 10 -3 39 -37 66 -76 26 -39 55 -77
64 -84 16 -12 16 -11 1 7 -8 11 -26 38 -38 60 -30 52 -93 135 -103 135 -4 0
-8 -8 -8 -19z"/>
<path d="M920 1710 c0 -5 4 -10 9 -10 6 0 13 5 16 10 3 6 -1 10 -9 10 -9 0
-16 -4 -16 -10z"/>
<path d="M1430 1590 c-8 -5 -23 -10 -32 -10 -20 0 -98 -32 -98 -40 0 -3 23 -3
52 -1 40 2 54 -1 64 -14 7 -9 18 -14 24 -10 9 6 9 10 -1 17 -9 5 -4 6 14 2 32
-7 37 12 10 45 -13 15 -22 18 -33 11z"/>
<path d="M784 1495 c-7 -19 -14 -39 -14 -45 0 -17 -18 -11 -22 8 -2 9 -5 -40
-6 -111 -3 -119 -1 -131 24 -187 23 -51 38 -68 118 -129 50 -38 98 -71 105
-73 8 -2 27 -15 44 -30 33 -30 90 -43 156 -36 l41 3 -6 -35 c-4 -25 -1 -40 9
-48 12 -11 19 -7 37 23 22 36 53 57 100 68 19 5 111 66 138 92 2 2 -7 1 -20
-1 -22 -5 -22 -5 -4 10 26 21 16 20 -36 -3 -24 -11 -51 -22 -60 -25 -11 -3
-18 -15 -18 -29 0 -25 -22 -41 -73 -52 -20 -4 -33 -16 -43 -41 -8 -20 -18 -34
-21 -31 -3 3 7 32 21 64 22 46 38 65 79 91 29 18 70 49 92 68 26 23 30 30 12
18 -15 -9 -30 -14 -33 -12 -3 3 10 15 28 27 52 33 24 24 -32 -10 -28 -17 -57
-28 -65 -25 -8 3 -15 1 -15 -4 0 -6 5 -10 11 -10 23 0 1 -23 -35 -35 -46 -16
-76 -42 -76 -66 0 -39 -18 -26 -24 17 -8 59 6 89 62 130 23 18 38 36 32 39 -5
3 -10 3 -10 -2 0 -4 -14 -16 -30 -25 l-30 -17 17 24 c10 13 21 25 26 25 4 0 7
6 7 13 0 21 59 70 150 126 46 28 81 51 77 51 -4 0 -44 -19 -90 -42 -105 -55
-105 -55 -87 -34 7 10 37 31 65 47 27 16 43 29 35 29 -8 0 -53 -22 -100 -50
-47 -27 -90 -50 -96 -50 -5 0 -29 -19 -52 -42 -23 -22 -42 -36 -42 -30 0 7 4
12 10 12 5 0 12 11 16 25 4 14 9 24 11 21 7 -6 34 20 32 31 -5 32 34 76 104
116 26 15 47 30 47 32 0 13 -96 -32 -125 -59 -18 -17 -48 -39 -66 -49 -30 -16
-32 -17 -44 0 -9 12 -10 25 -3 45 10 27 38 40 38 17 0 -8 5 -7 16 2 15 12 13
14 -11 22 -20 7 -29 5 -39 -8 -8 -12 -15 -14 -20 -7 -3 6 -2 14 4 17 7 4 8 11
1 18 -9 12 -11 18 -11 37 0 17 -25 11 -37 -9 -8 -12 -19 -17 -31 -14 -17 4
-58 -13 -117 -50 -30 -18 -34 -28 -24 -54 5 -14 9 -54 9 -89 0 -36 5 -74 10
-85 8 -15 7 -19 -4 -19 -22 0 -43 36 -56 94 -6 27 -15 57 -21 68 -6 11 -12 41
-14 66 -2 26 -7 63 -10 83 -7 39 10 63 26 38 6 -10 9 -8 9 9 0 13 5 32 10 42
8 15 6 21 -9 30 -28 15 -31 14 -47 -25z m496 -294 c0 -5 -7 -12 -16 -15 -14
-5 -15 -4 -4 9 14 17 20 19 20 6z m-256 -110 c3 -5 -3 -11 -14 -14 -20 -5 -26
3 -13 16 9 10 21 9 27 -2z m-50 -30 c3 -5 0 -14 -8 -20 -10 -9 -15 -8 -19 3
-9 22 15 37 27 17z m426 -15 c0 -3 -4 -8 -10 -11 -5 -3 -10 -1 -10 4 0 6 5 11
10 11 6 0 10 -2 10 -4z m70 -60 c0 -3 -4 -8 -10 -11 -5 -3 -10 -1 -10 4 0 6 5
11 10 11 6 0 10 -2 10 -4z m-335 -26 c3 -5 2 -10 -4 -10 -5 0 -13 5 -16 10 -3
6 -2 10 4 10 5 0 13 -4 16 -10z m31 -47 c-7 -7 -26 7 -26 19 0 6 6 6 15 -2 9
-7 13 -15 11 -17z"/>
<path d="M856 1483 c-14 -35 -6 -82 16 -94 17 -9 20 -9 16 3 -8 20 26 40 41
25 8 -8 14 -8 23 1 10 10 10 15 -2 22 -8 5 -15 15 -15 21 0 7 -17 18 -37 25
-31 11 -37 10 -42 -3z"/>
<path d="M966 1425 c-7 -19 13 -19 38 0 19 14 19 15 -6 15 -14 0 -28 -7 -32
-15z"/>
<path d="M1030 1420 c0 -5 5 -10 10 -10 6 0 10 5 10 10 0 6 -4 10 -10 10 -5 0
-10 -4 -10 -10z"/>
<path d="M1677 1395 c10 -13 22 -25 27 -25 5 0 -1 11 -14 25 -30 32 -36 32
-13 0z"/>
<path d="M1700 1286 c0 -2 8 -10 18 -17 15 -13 16 -12 3 4 -13 16 -21 21 -21
13z"/>
<path d="M1210 1240 c-9 -6 -10 -10 -3 -10 6 0 15 5 18 10 8 12 4 12 -15 0z"/>
<path d="M1487 1109 c7 -7 15 -10 18 -7 3 3 -2 9 -12 12 -14 6 -15 5 -6 -5z"/>
<path d="M1259 1050 c-41 -35 -69 -80 -51 -80 4 0 32 22 62 49 38 34 52 53 45
60 -7 7 -24 -2 -56 -29z"/>
<path d="M2999 1063 c11 -20 49 -63 57 -63 2 0 -8 18 -22 40 -26 39 -54 57
-35 23z"/>
<path d="M1624 1038 c-32 -24 -33 -40 -9 -93 7 -17 23 -51 34 -78 11 -26 26
-46 33 -45 12 3 99 110 93 116 -9 9 -46 -22 -66 -55 -19 -30 -24 -34 -27 -19
-2 10 10 32 29 52 30 31 31 34 11 34 -14 0 -27 -11 -37 -30 -19 -37 -29 -39
-20 -3 3 15 23 43 43 61 l37 34 -34 -18 c-18 -11 -39 -32 -46 -48 -12 -28 -13
-29 -24 -8 -13 25 -16 55 -2 34 6 -11 13 -7 30 14 27 34 27 48 1 34 -19 -10
-20 -9 -14 14 8 32 6 32 -32 4z"/>
<path d="M1538 1003 c6 -2 18 -2 25 0 6 3 1 5 -13 5 -14 0 -19 -2 -12 -5z"/>
<path d="M1949 949 c-26 -26 -22 -37 29 -73 38 -27 43 -28 72 -16 43 18 36 47
-20 81 -55 34 -55 34 -81 8z"/>
<path d="M1424 916 c-22 -19 -61 -44 -87 -56 -60 -28 -91 -65 -76 -91 9 -18
11 -18 40 3 23 18 27 24 14 28 -12 4 -8 10 15 24 31 18 67 15 55 -4 -3 -5 -1
-10 4 -10 6 0 11 -4 11 -10 0 -5 -10 -10 -22 -10 -22 0 -22 -1 5 -19 31 -20
25 -31 -25 -50 -22 -8 -26 -8 -21 4 7 21 -11 19 -30 -3 -19 -20 -23 -37 -7
-27 6 3 7 -1 4 -9 -3 -8 1 -30 10 -47 9 -18 16 -38 16 -46 0 -7 4 -13 9 -13 5
0 20 -21 33 -46 43 -86 109 -109 151 -52 l20 27 -30 93 c-34 102 -33 132 0 69
12 -22 29 -49 38 -59 9 -10 34 -44 57 -75 63 -85 90 -94 142 -50 29 24 32 31
27 67 -2 23 -19 70 -36 106 -18 36 -30 54 -27 40 2 -14 10 -53 17 -87 9 -44
10 -66 2 -74 -7 -7 -14 0 -23 23 -7 18 -20 41 -28 51 -8 9 -11 17 -6 18 5 1
-2 4 -16 8 -16 5 -24 13 -22 24 2 9 -2 17 -8 17 -6 0 -8 5 -5 10 8 13 -1 13
-25 0 -17 -9 -19 -7 -15 21 4 29 2 31 -22 26 l-27 -5 25 20 24 20 -35 -6 -34
-6 29 30 29 30 -34 -6 c-19 -4 -41 -11 -47 -17 -9 -6 -13 -6 -13 2 0 6 19 24
42 41 40 29 38 41 -4 19 -28 -15 -47 3 -27 27 12 16 12 17 -3 11 -10 -3 -18
-2 -18 3 0 6 4 10 9 10 6 0 9 9 8 20 -2 28 -18 25 -63 -14z m-4 -206 c0 -5 -8
-10 -17 -10 -10 0 -33 -9 -50 -20 -18 -11 -33 -16 -33 -11 0 13 62 51 83 51 9
0 17 -4 17 -10z m30 -28 c0 -5 -22 -15 -50 -24 -27 -9 -50 -14 -50 -12 0 2 15
13 33 24 33 20 67 26 67 12z m-23 -48 c-16 -9 -31 -13 -34 -10 -3 3 5 10 18
15 37 15 47 12 16 -5z m9 -29 c-23 -17 -36 -19 -36 -6 0 5 10 12 23 14 12 2
24 5 27 5 3 1 -4 -5 -14 -13z"/>
<path d="M1742 870 c-4 -3 -12 -19 -18 -36 -10 -29 -9 -35 20 -70 117 -145
146 -174 176 -174 68 0 78 27 28 77 -48 48 -68 72 -68 82 0 5 -8 12 -19 16
-20 6 -23 34 -6 48 6 4 -3 5 -19 1 -27 -7 -29 -5 -22 20 7 27 7 27 -22 12 -16
-8 -32 -22 -35 -31 -4 -8 -12 -15 -19 -15 -7 0 5 18 26 39 l38 39 -27 -1 c-15
-1 -30 -4 -33 -7z"/>
<path d="M1680 792 c6 -13 14 -21 18 -18 3 4 -2 14 -12 24 -18 16 -18 16 -6
-6z"/>
<path d="M1303 756 c-15 -13 -26 -26 -23 -29 3 -3 21 8 40 24 19 16 29 29 23
29 -7 0 -25 -11 -40 -24z"/>
<path d="M1690 740 c0 -5 5 -10 10 -10 6 0 10 5 10 10 0 6 -4 10 -10 10 -5 0
-10 -4 -10 -10z"/>
</g>
</svg>
