<svg version="1.1" id="Layer_1" xmlns="http://www.w3.org/2000/svg" xmlns:xlink="http://www.w3.org/1999/xlink" x="0px" y="0px"
	 width="100%" viewBox="0 0 772 688" enable-background="new 0 0 772 688" xml:space="preserve">
<path fill="#272B2C" opacity="1.000000" stroke="none" 
	d="
M449.000000,689.000000 
	C299.333344,689.000000 150.166672,689.000000 1.000000,689.000000 
	C1.000000,459.666656 1.000000,230.333328 1.000000,1.000000 
	C258.333344,1.000000 515.666687,1.000000 773.000000,1.000000 
	C773.000000,230.333328 773.000000,459.666656 773.000000,689.000000 
	C665.166687,689.000000 557.333313,689.000000 449.000000,689.000000 
M529.238525,87.840759 
	C526.272644,87.598030 523.306824,87.144447 520.340881,87.143204 
	C430.677216,87.105476 341.013031,87.246101 251.350525,86.922539 
	C241.478668,86.886917 235.628662,90.558968 230.945892,98.805611 
	C186.122742,177.741867 141.110886,256.571014 96.136124,335.421112 
	C92.420052,341.936157 92.558411,348.299744 96.261238,354.787720 
	C126.726776,408.168365 157.149612,461.573395 187.595581,514.965210 
	C202.529907,541.154907 217.467819,567.342712 232.446381,593.507141 
	C235.665161,599.129761 239.877350,603.017395 247.066162,603.010437 
	C339.396332,602.920959 431.726746,602.996094 524.056396,602.751526 
	C527.606689,602.742126 531.574463,600.501343 534.565125,598.257385 
	C537.082031,596.368896 538.669861,593.080933 540.308777,590.207031 
	C584.784302,512.218323 629.157776,434.171387 673.736328,356.241669 
	C678.189514,348.456818 678.267395,341.623840 673.801636,333.845428 
	C645.108887,283.868713 616.648682,233.758453 588.113220,183.691422 
	C572.030762,155.473831 556.064453,127.188774 539.744446,99.109261 
	C537.338623,94.969971 533.261536,91.802055 529.238525,87.840759 
z"/>
<path fill="#FCBB22" opacity="1.000000" stroke="none" 
	d="
M529.598083,88.012741 
	C533.261536,91.802055 537.338623,94.969971 539.744446,99.109261 
	C556.064453,127.188774 572.030762,155.473831 588.113220,183.691422 
	C616.648682,233.758453 645.108887,283.868713 673.801636,333.845428 
	C678.267395,341.623840 678.189514,348.456818 673.736328,356.241669 
	C629.157776,434.171387 584.784302,512.218323 540.308777,590.207031 
	C538.669861,593.080933 537.082031,596.368896 534.565125,598.257385 
	C531.574463,600.501343 527.606689,602.742126 524.056396,602.751526 
	C431.726746,602.996094 339.396332,602.920959 247.066162,603.010437 
	C239.877350,603.017395 235.665161,599.129761 232.446381,593.507141 
	C217.467819,567.342712 202.529907,541.154907 187.595581,514.965210 
	C157.149612,461.573395 126.726776,408.168365 96.261238,354.787720 
	C92.558411,348.299744 92.420052,341.936157 96.136124,335.421112 
	C141.110886,256.571014 186.122742,177.741867 230.945892,98.805611 
	C235.628662,90.558968 241.478668,86.886917 251.350525,86.922539 
	C341.013031,87.246101 430.677216,87.105476 520.340881,87.143204 
	C523.306824,87.144447 526.272644,87.598030 529.598083,88.012741 
M578.031799,275.506836 
	C571.346802,263.789459 564.652283,252.077499 557.978638,240.353668 
	C539.937439,208.659821 521.895386,176.966446 503.886078,145.254471 
	C502.296570,142.455505 500.455750,140.865738 496.842163,140.870819 
	C422.855469,140.974991 348.868530,140.975937 274.881866,140.858704 
	C270.817657,140.852264 268.536865,142.286636 266.584351,145.721802 
	C229.798889,210.440948 192.966568,275.133636 155.963547,339.728485 
	C153.609177,343.838440 153.974579,346.755920 156.191574,350.628876 
	C192.926331,414.802399 229.575974,479.024933 266.056976,543.342896 
	C268.564697,547.764099 271.393677,549.153076 276.322540,549.142700 
	C349.309326,548.988647 422.296631,548.987976 495.283417,549.129883 
	C499.726990,549.138489 502.258667,547.725220 504.408264,543.941345 
	C541.428284,478.777161 578.572510,413.683502 615.529541,348.483673 
	C616.524597,346.728333 616.615479,343.472687 615.648987,341.743103 
	C603.382690,319.791351 590.844971,297.991272 578.031799,275.506836 
z"/>
<path fill="#292C2C" opacity="1.000000" stroke="none" 
	d="
M578.204102,275.829712 
	C590.844971,297.991272 603.382690,319.791351 615.648987,341.743103 
	C616.615479,343.472687 616.524597,346.728333 615.529541,348.483673 
	C578.572510,413.683502 541.428284,478.777161 504.408264,543.941345 
	C502.258667,547.725220 499.726990,549.138489 495.283417,549.129883 
	C422.296631,548.987976 349.309326,548.988647 276.322540,549.142700 
	C271.393677,549.153076 268.564697,547.764099 266.056976,543.342896 
	C229.575974,479.024933 192.926331,414.802399 156.191574,350.628876 
	C153.974579,346.755920 153.609177,343.838440 155.963547,339.728485 
	C192.966568,275.133636 229.798889,210.440948 266.584351,145.721802 
	C268.536865,142.286636 270.817657,140.852264 274.881866,140.858704 
	C348.868530,140.975937 422.855469,140.974991 496.842163,140.870819 
	C500.455750,140.865738 502.296570,142.455505 503.886078,145.254471 
	C521.895386,176.966446 539.937439,208.659821 557.978638,240.353668 
	C564.652283,252.077499 571.346802,263.789459 578.204102,275.829712 
M464.373505,227.124191 
	C445.672394,211.622879 423.192902,207.022858 399.956360,206.410843 
	C369.156952,205.599625 338.320190,206.257690 307.500244,206.115829 
	C303.389893,206.096909 302.097107,207.332352 302.102478,211.524170 
	C302.215729,299.487549 302.229218,387.451141 302.098389,475.414459 
	C302.091095,480.309052 303.635406,481.585571 308.366119,481.553284 
	C337.019623,481.357574 365.680237,481.764069 394.327423,481.294403 
	C406.088867,481.101624 418.064728,480.356415 429.522858,477.901428 
	C461.154694,471.123962 484.504578,454.145721 491.991913,420.929352 
	C496.163269,402.423828 495.251373,384.081665 483.962372,367.651489 
	C476.942108,357.434113 466.939728,351.015961 455.917725,345.863708 
	C454.248444,345.083435 451.728790,342.794250 451.977692,341.794250 
	C453.305511,336.460083 453.961792,330.961517 459.302246,327.130402 
	C474.126831,316.495575 483.045624,302.009125 484.300995,283.567108 
	C485.751007,262.265228 481.358368,242.782974 464.373505,227.124191 
z"/>
<path fill="#F9BA23" opacity="1.000000" stroke="none" 
	d="
M464.643921,227.351562 
	C481.358368,242.782974 485.751007,262.265228 484.300995,283.567108 
	C483.045624,302.009125 474.126831,316.495575 459.302246,327.130402 
	C453.961792,330.961517 453.305511,336.460083 451.977692,341.794250 
	C451.728790,342.794250 454.248444,345.083435 455.917725,345.863708 
	C466.939728,351.015961 476.942108,357.434113 483.962372,367.651489 
	C495.251373,384.081665 496.163269,402.423828 491.991913,420.929352 
	C484.504578,454.145721 461.154694,471.123962 429.522858,477.901428 
	C418.064728,480.356415 406.088867,481.101624 394.327423,481.294403 
	C365.680237,481.764069 337.019623,481.357574 308.366119,481.553284 
	C303.635406,481.585571 302.091095,480.309052 302.098389,475.414459 
	C302.229218,387.451141 302.215729,299.487549 302.102478,211.524170 
	C302.097107,207.332352 303.389893,206.096909 307.500244,206.115829 
	C338.320190,206.257690 369.156952,205.599625 399.956360,206.410843 
	C423.192902,207.022858 445.672394,211.622879 464.643921,227.351562 
M410.117249,368.373322 
	C409.355835,366.171967 408.430420,364.011566 407.867920,361.760498 
	C406.771912,357.374115 404.317200,355.588806 399.622833,355.822815 
	C392.149048,356.195312 384.641937,356.017090 377.151917,355.891693 
	C373.891022,355.837097 371.951569,356.876038 370.869171,360.185699 
	C367.354004,370.934387 363.608612,381.608612 359.863586,392.280518 
	C359.220978,394.111755 358.385468,397.089478 357.226685,397.303345 
	C353.371033,398.015137 349.236237,398.217194 345.403564,397.528656 
	C343.985382,397.273865 343.043884,394.042419 342.005005,392.104218 
	C341.209381,390.619781 340.602325,389.034271 339.911377,387.493713 
	C338.796082,388.832397 338.549347,389.916260 338.549957,390.999969 
	C338.560272,409.147339 338.740082,427.296204 338.544128,445.441101 
	C338.491211,450.340790 340.277283,451.725464 344.958832,451.669159 
	C362.438110,451.458923 379.928497,451.867432 397.399811,451.437927 
	C405.656799,451.234955 414.074860,450.476898 422.084656,448.565308 
	C455.995636,440.472168 462.949738,407.543365 454.661835,384.851868 
	C452.571442,379.128540 449.172394,374.013336 443.629242,369.488068 
	C442.668823,371.760101 441.869049,373.310547 441.347900,374.949585 
	C439.836182,379.703979 438.536957,384.527222 436.970795,389.262756 
	C434.037445,398.132233 433.981323,397.951569 424.720154,398.084930 
	C421.263672,398.134674 419.714172,396.930786 418.698547,393.692657 
	C416.110260,385.440399 413.161316,377.301239 410.117249,368.373322 
M378.705994,293.194153 
	C379.444763,290.985199 380.321045,288.811218 380.892975,286.559845 
	C381.991486,282.235657 384.655975,280.104706 389.112579,280.032257 
	C393.582611,279.959595 396.506073,281.446320 398.044556,286.161987 
	C401.915405,298.026428 406.332214,309.711639 410.388611,321.517303 
	C411.790833,325.598328 413.947754,326.364441 417.972198,324.833923 
	C436.054352,317.957489 446.400757,305.421814 448.119629,285.819000 
	C449.846771,266.121765 441.927704,249.064819 425.209961,242.158432 
	C416.189545,238.431915 405.966797,236.566895 396.164917,236.012756 
	C379.060181,235.045776 361.859222,235.895050 344.703674,235.640152 
	C339.806152,235.567398 338.518463,237.246262 338.553986,241.967438 
	C338.749329,267.954834 338.640106,293.944458 338.650665,319.933319 
	C338.651276,321.428070 338.668579,322.939880 338.882843,324.414001 
	C339.346558,327.604919 340.870758,329.475586 344.511414,329.327911 
	C349.500854,329.125549 354.536133,328.939606 359.493896,329.387421 
	C364.247986,329.816833 366.411987,327.703003 367.836426,323.546967 
	C371.235748,313.628845 374.880920,303.794983 378.705994,293.194153 
z"/>
<path fill="#2C2E2C" opacity="1.000000" stroke="none" 
	d="
M410.236969,368.745056 
	C413.161316,377.301239 416.110260,385.440399 418.698547,393.692657 
	C419.714172,396.930786 421.263672,398.134674 424.720154,398.084930 
	C433.981323,397.951569 434.037445,398.132233 436.970795,389.262756 
	C438.536957,384.527222 439.836182,379.703979 441.347900,374.949585 
	C441.869049,373.310547 442.668823,371.760101 443.629242,369.488068 
	C449.172394,374.013336 452.571442,379.128540 454.661835,384.851868 
	C462.949738,407.543365 455.995636,440.472168 422.084656,448.565308 
	C414.074860,450.476898 405.656799,451.234955 397.399811,451.437927 
	C379.928497,451.867432 362.438110,451.458923 344.958832,451.669159 
	C340.277283,451.725464 338.491211,450.340790 338.544128,445.441101 
	C338.740082,427.296204 338.560272,409.147339 338.549957,390.999969 
	C338.549347,389.916260 338.796082,388.832397 339.911377,387.493713 
	C340.602325,389.034271 341.209381,390.619781 342.005005,392.104218 
	C343.043884,394.042419 343.985382,397.273865 345.403564,397.528656 
	C349.236237,398.217194 353.371033,398.015137 357.226685,397.303345 
	C358.385468,397.089478 359.220978,394.111755 359.863586,392.280518 
	C363.608612,381.608612 367.354004,370.934387 370.869171,360.185699 
	C371.951569,356.876038 373.891022,355.837097 377.151917,355.891693 
	C384.641937,356.017090 392.149048,356.195312 399.622833,355.822815 
	C404.317200,355.588806 406.771912,357.374115 407.867920,361.760498 
	C408.430420,364.011566 409.355835,366.171967 410.236969,368.745056 
z"/>
<path fill="#2B2D2B" opacity="1.000000" stroke="none" 
	d="
M378.566406,293.560638 
	C374.880920,303.794983 371.235748,313.628845 367.836426,323.546967 
	C366.411987,327.703003 364.247986,329.816833 359.493896,329.387421 
	C354.536133,328.939606 349.500854,329.125549 344.511414,329.327911 
	C340.870758,329.475586 339.346558,327.604919 338.882843,324.414001 
	C338.668579,322.939880 338.651276,321.428070 338.650665,319.933319 
	C338.640106,293.944458 338.749329,267.954834 338.553986,241.967438 
	C338.518463,237.246262 339.806152,235.567398 344.703674,235.640152 
	C361.859222,235.895050 379.060181,235.045776 396.164917,236.012756 
	C405.966797,236.566895 416.189545,238.431915 425.209961,242.158432 
	C441.927704,249.064819 449.846771,266.121765 448.119629,285.819000 
	C446.400757,305.421814 436.054352,317.957489 417.972198,324.833923 
	C413.947754,326.364441 411.790833,325.598328 410.388611,321.517303 
	C406.332214,309.711639 401.915405,298.026428 398.044556,286.161987 
	C396.506073,281.446320 393.582611,279.959595 389.112579,280.032257 
	C384.655975,280.104706 381.991486,282.235657 380.892975,286.559845 
	C380.321045,288.811218 379.444763,290.985199 378.566406,293.560638 
z"/>
</svg>